<svg width="32" height="32" viewBox="0 0 32 32" fill="none" xmlns="http://www.w3.org/2000/svg">
<path d="M5.5 11C4.11929 11 3 9.88071 3 8.5C3 7.11929 4.11929 6 5.5 6C6.88071 6 8 7.11929 8 8.5C8 9.88071 6.88071 11 5.5 11Z" fill="black"/>
<path d="M5 8L10 13" stroke="black" stroke-width="1.2"/>
<path d="M25.5 11C26.8807 11 28 9.88071 28 8.5C28 7.11929 26.8807 6 25.5 6C24.1193 6 23 7.11929 23 8.5C23 9.88071 24.1193 11 25.5 11Z" fill="black"/>
<path d="M26.48 8L22 12.48" stroke="black" stroke-width="1.2"/>
<path fill-rule="evenodd" clip-rule="evenodd" d="M6.83417 22.9319C5.54587 22.3191 4.79608 20.9432 5.04725 19.5399C6.12522 13.5172 10.6177 9 15.9959 9C21.3871 9 25.8883 13.5391 26.9523 19.5837C27.1998 20.9895 26.4439 22.3648 25.1512 22.9725C22.385 24.2731 19.2954 25 16.0357 25C12.7423 25 9.62224 24.2579 6.83417 22.9319Z" fill="#FFDF6F"/>
<path d="M5.63768 20.0583C6.6835 14.2096 11.0065 9.96001 16.04 9.96001V8.76001C10.2734 8.76001 5.57526 13.59 4.45642 19.847L5.63768 20.0583ZM16.04 9.96001C21.0855 9.96001 25.4174 14.2303 26.4497 20.1006L27.6317 19.8927C26.5273 13.6133 21.8206 8.76001 16.04 8.76001V9.96001ZM24.9768 22.8595C22.2777 24.1297 19.2626 24.84 16.08 24.84V26.04C19.4429 26.04 22.6321 25.2891 25.4877 23.9454L24.9768 22.8595ZM16.08 24.84C12.8643 24.84 9.81958 24.1149 7.0991 22.8198L6.5833 23.9033C9.4615 25.2734 12.6821 26.04 16.08 26.04V24.84ZM26.4497 20.1006C26.6489 21.2333 26.0425 22.3581 24.9768 22.8595L25.4877 23.9454C27.018 23.2252 27.9293 21.5856 27.6317 19.8927L26.4497 20.1006ZM4.45642 19.847C4.15424 21.5369 5.05834 23.1773 6.5833 23.9033L7.0991 22.8198C6.03702 22.3142 5.4355 21.1888 5.63768 20.0583L4.45642 19.847Z" fill="black"/>
<path fill-rule="evenodd" clip-rule="evenodd" d="M9.35221 21.6008C8.34773 21.159 7.75184 20.005 8.09991 18.8958C9.17331 15.4753 12.3045 13 16 13C19.6955 13 22.8267 15.4753 23.9001 18.8958C24.2482 20.005 23.6523 21.159 22.6478 21.6008C20.5962 22.5029 18.3519 23 16 23C13.6481 23 11.4038 22.5029 9.35221 21.6008Z" fill="black"/>
<path d="M19 20.2C20.1046 20.2 21 19.4837 21 18.6C21 17.7163 20.1046 17 19 17C17.8954 17 17 17.7163 17 18.6C17 19.4837 17.8954 20.2 19 20.2Z" fill="white"/>
<path d="M13 20.2C14.1046 20.2 15 19.4837 15 18.6C15 17.7163 14.1046 17 13 17C11.8954 17 11 17.7163 11 18.6C11 19.4837 11.8954 20.2 13 20.2Z" fill="white"/>
</svg>
