<svg width="612" height="670" viewBox="0 0 612 670" fill="none" xmlns="http://www.w3.org/2000/svg">
<path fill-rule="evenodd" clip-rule="evenodd" d="M269.598 0.010251C266.218 0.003722 262.992 1.42294 260.713 3.91903L154.726 120L3.27061 286.428C-3.7431 294.135 1.72504 306.504 12.1457 306.504H88.3803L218.741 306.545C227.074 306.548 232.868 314.834 230.009 322.662L109.161 653.543C104.649 665.895 120.427 675.462 129.294 665.751L457.274 306.55L608.729 140.123C615.743 132.416 610.275 120.046 599.854 120.046H523.601L393.258 120.006C384.925 120.003 379.131 111.717 381.99 103.889L413.946 16.3837C416.801 8.56407 411.022 0.283434 402.697 0.267353L269.598 0.010251Z" fill="white"/>
<path fill-rule="evenodd" clip-rule="evenodd" d="M269.598 0.010251C266.218 0.003722 262.992 1.42294 260.713 3.91903L154.726 120L3.27061 286.428C-3.7431 294.135 1.72504 306.504 12.1457 306.504H88.3803L218.741 306.545C227.074 306.548 232.868 314.834 230.009 322.662L109.161 653.543C104.649 665.895 120.427 675.462 129.294 665.751L457.274 306.55L608.729 140.123C615.743 132.416 610.275 120.046 599.854 120.046H523.601L393.258 120.006C384.925 120.003 379.131 111.717 381.99 103.889L413.946 16.3837C416.801 8.56407 411.022 0.283434 402.697 0.267353L269.598 0.010251Z" fill="url(#paint0_linear_1260_1575)" fill-opacity="0.05"/>
<defs>
<linearGradient id="paint0_linear_1260_1575" x1="-242.932" y1="354.5" x2="440.307" y2="793.801" gradientUnits="userSpaceOnUse">
<stop stop-color="#FF7100"/>
<stop offset="1" stop-color="#FF3B61" stop-opacity="0.99"/>
</linearGradient>
</defs>
</svg>
