<svg width="619" height="765" viewBox="0 0 619 765" fill="none" xmlns="http://www.w3.org/2000/svg">
<path d="M615.84 299.961C620.761 294.887 617.165 286.392 610.097 286.392H392.727C387.684 286.392 383.898 281.781 384.881 276.834L437.945 9.59072C439.481 1.85558 430.081 -3.20085 424.473 2.34383L2.84479 419.222C-2.23895 424.249 1.32039 432.911 8.4695 432.911H228.827C234.076 432.911 237.903 437.881 236.561 442.956L154.22 754.429C152.115 762.391 161.964 767.955 167.697 762.043L615.84 299.961Z" fill="white"/>
<path d="M615.84 299.961C620.761 294.887 617.165 286.392 610.097 286.392H392.727C387.684 286.392 383.898 281.781 384.881 276.834L437.945 9.59072C439.481 1.85558 430.081 -3.20085 424.473 2.34383L2.84479 419.222C-2.23895 424.249 1.32039 432.911 8.4695 432.911H228.827C234.076 432.911 237.903 437.881 236.561 442.956L154.22 754.429C152.115 762.391 161.964 767.955 167.697 762.043L615.84 299.961Z" fill="url(#paint0_linear_1722_2770)" fill-opacity="0.05"/>
<defs>
<linearGradient id="paint0_linear_1722_2770" x1="-224.205" y1="362.578" x2="461.586" y2="748.797" gradientUnits="userSpaceOnUse">
<stop stop-color="#FF7100"/>
<stop offset="1" stop-color="#FF3B61" stop-opacity="0.99"/>
</linearGradient>
</defs>
</svg>
