<svg width="24" height="24" viewBox="0 0 24 24" fill="none" xmlns="http://www.w3.org/2000/svg">
<path d="M11.9693 0.00212519C11.9693 0.00212519 19.0425 -0.314157 22.7926 6.77019H11.3674C11.3674 6.77019 9.21122 6.70094 7.36936 9.30737C6.84028 10.4014 6.27156 11.5283 6.90977 13.7492C5.99039 12.1971 2.02881 5.32371 2.02881 5.32371C2.02881 5.32371 4.82309 0.282194 11.9692 0.00212519H11.9693Z" fill="#EF3F36"/>
<path d="M22.4257 17.9865C22.4257 17.9865 19.1618 24.2504 11.1328 23.9407C12.1249 22.2305 16.847 14.0819 16.847 14.0819C16.847 14.0819 17.9879 12.2564 16.642 9.36339C15.9574 8.3584 15.2596 7.30728 13.0111 6.74705C14.82 6.73068 22.7729 6.74705 22.7729 6.74705C22.7729 6.74705 25.7523 11.6798 22.4257 17.9865Z" fill="#FCD900"/>
<path d="M1.56272 18.036C1.56272 18.036 -2.25011 12.0884 2.03556 5.31375C3.02434 7.02393 7.74649 15.1726 7.74649 15.1726C7.74649 15.1726 8.76504 17.0706 11.9495 17.3538C13.1632 17.2649 14.4264 17.1891 16.0402 15.5318C15.1505 17.1003 11.1591 23.954 11.1591 23.954C11.1591 23.954 5.37875 24.0594 1.56263 18.036H1.56272Z" fill="#61BC5B"/>
<path d="M11.1294 24L12.7365 17.3177C12.7365 17.3177 14.5024 17.1792 15.984 15.5614C15.0646 17.1727 11.1294 24 11.1294 24Z" fill="#5AB055"/>
<path d="M6.58594 12.0751C6.58594 9.12945 8.98345 6.74051 11.9397 6.74051C14.896 6.74051 17.2935 9.12945 17.2935 12.0751C17.2935 15.0209 14.896 17.4098 11.9397 17.4098C8.98345 17.4065 6.58594 15.0209 6.58594 12.0751Z" fill="white"/>
<path d="M7.48193 12.0752C7.48193 9.6237 9.47603 7.63345 11.9397 7.63345C14.3999 7.63345 16.3973 9.62043 16.3973 12.0752C16.3973 14.5268 14.4033 16.517 11.9397 16.517C9.47931 16.517 7.48193 14.5268 7.48193 12.0752Z" fill="url(#paint0_linear_1773_1805)"/>
<path d="M22.7696 6.75041L16.1526 8.68462C16.1526 8.68462 15.1539 7.22484 13.0078 6.75041C14.8696 6.74049 22.7696 6.75041 22.7696 6.75041Z" fill="#EACA05"/>
<path d="M6.78083 13.5054C5.8515 11.9007 2.02881 5.32368 2.02881 5.32368L6.92958 10.1543C6.92958 10.1543 6.42688 11.1856 6.61546 12.6618L6.78074 13.5054H6.78083Z" fill="#DF3A32"/>
<defs>
<linearGradient id="paint0_linear_1773_1805" x1="11.9394" y1="7.69617" x2="11.9394" y2="16.2496" gradientUnits="userSpaceOnUse">
<stop stop-color="#86BBE5"/>
<stop offset="1" stop-color="#1072BA"/>
</linearGradient>
</defs>
</svg>
