<svg width="30" height="30" viewBox="0 0 30 30" fill="none" xmlns="http://www.w3.org/2000/svg">
  <rect width="30" height="30" rx="15" fill="#F2F2F2"/>
  <path fill-rule="evenodd" clip-rule="evenodd" d="M11.7071 10.2929C11.3166 9.90237 10.6834 9.90237 10.2929 10.2929C9.90237 10.6834 9.90237 11.3166 10.2929 11.7071L13.5858 15L10.2929 18.2929C9.90237 18.6834 9.90237 19.3166 10.2929 19.7071C10.6834 20.0976 11.3166 20.0976 11.7071 19.7071L15 16.4142L18.2929 19.7071C18.6834 20.0976 19.3166 20.0976 19.7071 19.7071C20.0976 19.3166 20.0976 18.6834 19.7071 18.2929L16.4142 15L19.7071 11.7071C20.0976 11.3166 20.0976 10.6834 19.7071 10.2929C19.3166 9.90237 18.6834 9.90237 18.2929 10.2929L15 13.5858L11.7071 10.2929Z" fill="#8A8A8A"/>
</svg>
