<svg width="76" height="83" viewBox="0 0 76 83" fill="none" xmlns="http://www.w3.org/2000/svg">
<path d="M34.5354 72H11V11H34.2965C40.5885 11 46.0243 12.2212 50.604 14.6636C55.2035 17.0861 58.7478 20.5809 61.2367 25.148C63.7456 29.6952 65 35.1459 65 41.5C65 47.8542 63.7555 53.3148 61.2666 57.8819C58.7776 62.4291 55.2533 65.9239 50.6936 68.3662C46.1338 70.7888 40.7478 72 34.5354 72ZM27.6062 57.9414H33.9381C36.9646 57.9414 39.5431 57.4549 41.6737 56.482C43.8241 55.509 45.4569 53.8311 46.5719 51.4483C47.7069 49.0655 48.2743 45.7494 48.2743 41.5C48.2743 37.2507 47.6969 33.9346 46.542 31.5518C45.4071 29.169 43.7345 27.4911 41.5243 26.5181C39.3341 25.5451 36.646 25.0586 33.4602 25.0586H27.6062V57.9414Z" fill="url(#paint0_linear_1574_2200)"/>
<path d="M34.5354 72H11V11H34.2965C40.5885 11 46.0243 12.2212 50.604 14.6636C55.2035 17.0861 58.7478 20.5809 61.2367 25.148C63.7456 29.6952 65 35.1459 65 41.5C65 47.8542 63.7555 53.3148 61.2666 57.8819C58.7776 62.4291 55.2533 65.9239 50.6936 68.3662C46.1338 70.7888 40.7478 72 34.5354 72ZM27.6062 57.9414H33.9381C36.9646 57.9414 39.5431 57.4549 41.6737 56.482C43.8241 55.509 45.4569 53.8311 46.5719 51.4483C47.7069 49.0655 48.2743 45.7494 48.2743 41.5C48.2743 37.2507 47.6969 33.9346 46.542 31.5518C45.4071 29.169 43.7345 27.4911 41.5243 26.5181C39.3341 25.5451 36.646 25.0586 33.4602 25.0586H27.6062V57.9414Z" fill="url(#paint1_linear_1574_2200)"/>
<path fill-rule="evenodd" clip-rule="evenodd" d="M2 83C0.89543 83 0 82.1046 0 81V2.00003C0 0.895461 0.895429 3.05176e-05 2 3.05176e-05H34.2978C42.0089 3.05176e-05 49.2928 1.50132 55.7664 4.95022C62.2669 8.38264 67.3711 13.4223 70.8881 19.8696C74.4606 26.3611 76 33.7128 76 41.5C76 49.2859 74.4713 56.6351 70.9316 63.1352L70.9268 63.1441L70.922 63.1529C67.4141 69.5666 62.3467 74.6004 55.8986 78.0569L55.8821 78.0657L55.8657 78.0744C49.4217 81.5006 42.189 83 34.5367 83H2ZM61.2282 25.1415C58.7402 20.5727 55.1972 17.0765 50.5994 14.653C46.0214 12.2097 40.5876 10.988 34.2978 10.988H13.0099C11.9053 10.988 11.0099 11.8834 11.0099 12.988V70.0121C11.0099 71.1166 11.9053 72.0121 13.0099 72.0121H34.5367C40.7468 72.0121 46.1309 70.8003 50.6889 68.3768C55.247 65.9335 58.7701 62.4373 61.2581 57.8883C63.7461 53.3195 64.9901 47.8567 64.9901 41.5C64.9901 35.1434 63.7362 29.6905 61.2282 25.1415ZM46.5688 51.4522C47.7033 49.0684 48.2706 45.7511 48.2706 41.5C48.2706 37.249 47.6934 33.9316 46.5389 31.5479C45.4044 29.1641 43.7324 27.4855 41.523 26.5122C40.6368 26.1182 39.6691 25.804 38.6199 25.5695C37.0768 25.2246 35.3575 25.0521 33.4618 25.0521H29.61C28.5054 25.0521 27.61 25.9476 27.61 27.0521V55.9479C27.61 57.0525 28.5054 57.9479 29.61 57.9479H33.9395C35.6414 57.9479 37.2015 57.7939 38.6199 57.486C39.7231 57.2464 40.7406 56.9137 41.6723 56.4879C43.822 55.5145 45.4541 53.8359 46.5688 51.4522Z" fill="#2E6CFF"/>
<defs>
<linearGradient id="paint0_linear_1574_2200" x1="69.1359" y1="39.7405" x2="13.8506" y2="20.3612" gradientUnits="userSpaceOnUse">
<stop stop-color="#FF7A00"/>
<stop offset="1" stop-color="#FFA800"/>
</linearGradient>
<linearGradient id="paint1_linear_1574_2200" x1="7.05752" y1="41.0462" x2="69.1359" y2="41.0462" gradientUnits="userSpaceOnUse">
<stop stop-color="#F9F03E"/>
<stop offset="1" stop-color="#9DEDA2"/>
</linearGradient>
</defs>
</svg>
