<svg width="24" height="24" viewBox="0 0 24 24" fill="none" xmlns="http://www.w3.org/2000/svg">
<path d="M12 0C18.5647 0 24 5.44706 24 12C24 18.5647 18.5529 24 11.9882 24C5.43529 24 0 18.5647 0 12C0 5.44706 5.44706 0 12 0ZM11.9882 9.81176C11.3765 9.81176 11.0353 10.1529 11.0235 10.7765L10.8706 17.1882C10.8588 17.8118 11.3176 18.2588 11.9765 18.2588C12.6235 18.2588 13.1059 17.8 13.0941 17.1765L12.9294 10.7765C12.9176 10.1412 12.5765 9.81176 11.9882 9.81176ZM11.9882 5.87059C11.2824 5.87059 10.6706 6.43529 10.6706 7.12941C10.6706 7.82353 11.2706 8.4 11.9882 8.4C12.7059 8.4 13.3059 7.83529 13.3059 7.12941C13.3059 6.42353 12.6941 5.87059 11.9882 5.87059Z" fill="#004EE7"/>
</svg>
