<svg width="160" height="160" viewBox="0 0 160 160" fill="none" xmlns="http://www.w3.org/2000/svg">
<g filter="url(#filter0_ii_1681_2281)">
<path d="M80.1753 100.578H65.3818C64.8296 100.578 64.3818 100.131 64.3818 99.5783V60.4217C64.3818 59.8694 64.8296 59.4217 65.3818 59.4217H80.015C84.2373 59.4217 87.885 60.2456 90.9582 61.8935C94.0447 63.528 96.4231 65.8859 98.0933 68.9673C99.7769 72.0353 100.619 75.7129 100.619 80C100.619 84.2872 99.7836 87.9714 98.1134 91.0528C96.4432 94.1208 94.0781 96.4787 91.0183 98.1266C87.9585 99.7611 84.3442 100.578 80.1753 100.578ZM75.5255 90.093C75.5255 90.6453 75.9732 91.093 76.5255 91.093H79.7745C81.8054 91.093 83.5358 90.7648 84.9655 90.1083C86.4085 89.4518 87.5042 88.3198 88.2525 86.7121C89.0141 85.1044 89.3949 82.867 89.3949 80C89.3949 77.133 89.0074 74.8956 88.2324 73.2879C87.4708 71.6803 86.3484 70.5482 84.8653 69.8917C83.3955 69.2352 81.5917 68.907 79.4538 68.907H76.5255C75.9732 68.907 75.5255 69.3547 75.5255 69.907V90.093Z" fill="url(#paint0_linear_1681_2281)"/>
<path d="M80.1753 100.578H65.3818C64.8296 100.578 64.3818 100.131 64.3818 99.5783V60.4217C64.3818 59.8694 64.8296 59.4217 65.3818 59.4217H80.015C84.2373 59.4217 87.885 60.2456 90.9582 61.8935C94.0447 63.528 96.4231 65.8859 98.0933 68.9673C99.7769 72.0353 100.619 75.7129 100.619 80C100.619 84.2872 99.7836 87.9714 98.1134 91.0528C96.4432 94.1208 94.0781 96.4787 91.0183 98.1266C87.9585 99.7611 84.3442 100.578 80.1753 100.578ZM75.5255 90.093C75.5255 90.6453 75.9732 91.093 76.5255 91.093H79.7745C81.8054 91.093 83.5358 90.7648 84.9655 90.1083C86.4085 89.4518 87.5042 88.3198 88.2525 86.7121C89.0141 85.1044 89.3949 82.867 89.3949 80C89.3949 77.133 89.0074 74.8956 88.2324 73.2879C87.4708 71.6803 86.3484 70.5482 84.8653 69.8917C83.3955 69.2352 81.5917 68.907 79.4538 68.907H76.5255C75.9732 68.907 75.5255 69.3547 75.5255 69.907V90.093Z" fill="url(#paint1_linear_1681_2281)"/>
<path fill-rule="evenodd" clip-rule="evenodd" d="M58 108C57.4477 108 57 107.552 57 107V53C57 52.4477 57.4477 52 58 52H80.0156C85.1902 52 90.0781 53.0129 94.4222 55.3399C98.7844 57.6557 102.21 61.056 104.57 65.406C106.967 69.7858 108 74.7459 108 80C108 85.2531 106.974 90.2116 104.599 94.5972L104.596 94.6032L104.592 94.6092C102.238 98.9365 98.8379 102.333 94.5109 104.665L94.4999 104.671L94.4888 104.677C90.1646 106.988 85.3111 108 80.1759 108H58ZM98.0874 68.9629C96.4178 65.8803 94.0403 63.5215 90.9548 61.8864C87.8828 60.2378 84.2364 59.4136 80.0156 59.4136H65.3882C64.8359 59.4136 64.3882 59.8613 64.3882 60.4136V99.5864C64.3882 100.139 64.8359 100.586 65.3882 100.586H80.1759C84.3432 100.586 87.9562 99.7689 91.0149 98.1338C94.0736 96.4852 96.4378 94.1264 98.1074 91.0572C99.777 87.9746 100.612 84.2888 100.612 80C100.612 75.7112 99.7703 72.0321 98.0874 68.9629ZM88.2501 86.7147C89.0114 85.1064 89.3921 82.8682 89.3921 80C89.3921 77.1318 89.0047 74.8936 88.2301 73.2853C87.4687 71.677 86.3468 70.5444 84.8641 69.8877C84.2695 69.6219 83.6201 69.4099 82.916 69.2517C81.8805 69.019 80.7267 68.9026 79.4547 68.9026H76.5278C75.9755 68.9026 75.5278 69.3503 75.5278 69.9026V90.0974C75.5278 90.6497 75.9755 91.0974 76.5278 91.0974H79.7752C80.9172 91.0974 81.9641 90.9935 82.916 90.7857C83.6563 90.6241 84.3391 90.3996 84.9643 90.1123C86.4069 89.4555 87.5021 88.323 88.2501 86.7147Z" fill="#2E6CFF"/>
</g>
<circle cx="80" cy="81" r="65" stroke="#DFE4ED" stroke-width="2"/>
<path d="M77.0005 130.004C77.0005 130.004 85.2527 129.635 89.6278 137.9H76.2983C76.2983 137.9 73.7828 137.819 71.634 140.86C71.0167 142.136 70.3532 143.451 71.0978 146.042C70.0252 144.231 65.4033 136.212 65.4033 136.212C65.4033 136.212 68.6633 130.331 77.0004 130.004H77.0005Z" fill="#EF3F36"/>
<path d="M89.1994 150.986C89.1994 150.986 85.3915 158.294 76.0244 157.932C77.1818 155.937 82.691 146.43 82.691 146.43C82.691 146.43 84.022 144.301 82.4518 140.925C81.6531 139.753 80.8391 138.527 78.2157 137.873C80.3261 137.854 89.6045 137.873 89.6045 137.873C89.6045 137.873 93.0805 143.628 89.1994 150.986Z" fill="#FCD900"/>
<path d="M64.8593 151.043C64.8593 151.043 60.411 144.104 65.411 136.201C66.5645 138.196 72.0737 147.703 72.0737 147.703C72.0737 147.703 73.262 149.917 76.9772 150.248C78.3932 150.144 79.8669 150.055 81.7497 148.122C80.7117 149.952 76.0551 157.948 76.0551 157.948C76.0551 157.948 69.3113 158.071 64.8592 151.043H64.8593Z" fill="#61BC5B"/>
<path d="M76.0205 158.001L77.8955 150.205C77.8955 150.205 79.9557 150.044 81.6842 148.156C80.6115 150.036 76.0205 158.001 76.0205 158.001V158.001Z" fill="#5AB055"/>
<path d="M70.7197 144.089C70.7197 140.652 73.5168 137.865 76.9658 137.865C80.4148 137.865 83.2119 140.652 83.2119 144.089C83.2119 147.526 80.4148 150.313 76.9658 150.313C73.5168 150.309 70.7197 147.526 70.7197 144.089V144.089Z" fill="white"/>
<path d="M71.7656 144.089C71.7656 141.229 74.0921 138.907 76.9663 138.907C79.8366 138.907 82.1669 141.225 82.1669 144.089C82.1669 146.949 79.8406 149.271 76.9663 149.271C74.0959 149.271 71.7656 146.949 71.7656 144.089V144.089Z" fill="url(#paint2_linear_1681_2281)"/>
<path d="M89.6007 137.877L81.8808 140.133C81.8808 140.133 80.7157 138.43 78.2119 137.877C80.384 137.865 89.6007 137.877 89.6007 137.877V137.877Z" fill="#EACA05"/>
<path d="M70.9473 145.758C69.8631 143.885 65.4033 136.212 65.4033 136.212L71.1209 141.848C71.1209 141.848 70.5344 143.051 70.7544 144.773L70.9472 145.758H70.9473Z" fill="#DF3A32"/>
<path d="M12.3953 87.8859C10.8422 86.0594 9.84688 83.3578 9.78125 80.3281V79.6719C9.84688 76.6422 10.8531 73.9406 12.3953 72.1141C14.4078 69.5109 17.3609 68.3406 20.6969 68.3406C22.7531 68.3406 24.6891 68.4828 26.3297 69.5766C23.8688 67.3563 20.6203 66.0109 17.0547 66H17C9.26719 66 3 72.2672 3 80C3 87.5031 8.90625 93.6391 16.3328 93.9891C16.5516 94 16.7812 94 17 94C20.5875 94 23.8578 92.6547 26.3297 90.4344C24.6891 91.5281 22.8625 91.5719 20.8063 91.5719C17.4813 91.5828 14.3969 90.5 12.3953 87.8859V87.8859Z" fill="url(#paint3_linear_1681_2281)"/>
<path d="M12.3955 72.1141C13.6752 70.5938 15.3377 69.6859 17.1533 69.6859C21.233 69.6859 24.5361 74.3016 24.5361 80.011C24.5361 85.7203 21.233 90.336 17.1533 90.336C15.3377 90.336 13.6861 89.4172 12.3955 87.9078C14.408 90.511 17.3939 92.1735 20.7189 92.1735C22.7643 92.1735 24.6893 91.55 26.3299 90.4563C29.1955 87.875 31.0002 84.1453 31.0002 80C31.0002 75.8547 29.1955 72.125 26.3299 69.5656C24.6893 68.4719 22.7752 67.8484 20.7189 67.8484C17.383 67.8484 14.3971 69.5 12.3955 72.1141V72.1141Z" fill="url(#paint4_linear_1681_2281)"/>
<path d="M89.9905 11.7265C89.3816 10.2574 88.1473 8.67139 87.1784 8.17039C87.967 9.72015 88.4232 11.2746 88.5976 12.4344C88.5976 12.4344 88.5976 12.4426 88.6005 12.4578C87.0156 8.49777 84.3277 6.90065 82.1327 3.42407C82.0213 3.24869 81.9105 3.07331 81.802 2.88566C81.7407 2.77985 81.6911 2.68397 81.648 2.59336C81.557 2.41757 81.4867 2.23179 81.4386 2.03975C81.439 2.03063 81.4359 2.02169 81.4301 2.01467C81.4243 2.00765 81.4161 2.00305 81.4071 2.00175C81.3985 1.99942 81.3894 1.99942 81.3808 2.00175C81.3785 2.00281 81.3763 2.00419 81.3744 2.00584C81.3709 2.00584 81.3674 2.00994 81.3639 2.0111L81.3697 2.0035C77.8483 4.07063 76.6536 7.89446 76.544 9.80784C75.1368 9.90428 73.7913 10.4236 72.683 11.298C72.5672 11.1998 72.4461 11.1081 72.3202 11.0232C72.0008 9.9027 71.9873 8.71683 72.2811 7.58931C70.8409 8.24697 69.721 9.28463 68.9066 10.203H68.9002C68.3443 9.49742 68.3834 7.17015 68.4149 6.68435C68.4085 6.65395 68.0008 6.89656 67.9483 6.93339C67.4577 7.2841 66.9992 7.67771 66.5781 8.1096C66.0988 8.59655 65.661 9.12276 65.2691 9.68274C64.3675 10.9632 63.7281 12.4101 63.3879 13.9398C63.3815 13.9702 63.3757 14.0017 63.3692 14.0327C63.343 14.1561 63.2479 14.7751 63.231 14.9096V14.9406C63.107 15.5803 63.0298 16.2282 63 16.8791V16.951C63 24.7097 69.2765 31 77.0182 31C83.9521 31 89.7088 25.9549 90.8364 19.328C90.8597 19.1485 90.8789 18.9673 90.8999 18.786C91.1788 16.3763 90.869 13.8439 89.9905 11.7265ZM73.8327 22.7239C73.8981 22.7549 73.9599 22.7894 74.027 22.8198L74.0363 22.8256C73.9692 22.7929 73.901 22.759 73.8333 22.7239H73.8327ZM88.6017 12.4642V12.4508V12.466V12.4642Z" fill="url(#paint5_linear_1681_2281)"/>
<path d="M89.9907 11.7265C89.3818 10.2574 88.1475 8.67141 87.1786 8.17041C87.9672 9.72017 88.4234 11.2746 88.5978 12.4344V12.4631C89.9208 16.0572 89.1998 19.7121 88.1615 21.9452C86.555 25.4002 82.6661 28.9416 76.578 28.7692C70.0058 28.5821 64.2117 23.6885 63.1297 17.2842C62.9325 16.2735 63.1297 15.7608 63.2289 14.9406C63.1081 15.5725 63.062 15.7555 63.002 16.8791V16.951C63.002 24.7098 69.2784 31 77.0202 31C83.954 31 89.7108 25.9549 90.8383 19.328C90.8616 19.1485 90.8809 18.9673 90.9019 18.7861C91.179 16.3764 90.8692 13.8439 89.9907 11.7265V11.7265Z" fill="url(#paint6_radial_1681_2281)"/>
<path d="M89.9907 11.7265C89.3818 10.2574 88.1475 8.67141 87.1786 8.17041C87.9672 9.72017 88.4234 11.2746 88.5978 12.4344V12.4631C89.9208 16.0572 89.1998 19.7121 88.1615 21.9452C86.555 25.4002 82.6661 28.9416 76.578 28.7692C70.0058 28.5821 64.2117 23.6885 63.1297 17.2842C62.9325 16.2735 63.1297 15.7608 63.2289 14.9406C63.1081 15.5725 63.062 15.7555 63.002 16.8791V16.951C63.002 24.7098 69.2784 31 77.0202 31C83.954 31 89.7108 25.9549 90.8383 19.328C90.8616 19.1485 90.8809 18.9673 90.9019 18.7861C91.179 16.3764 90.8692 13.8439 89.9907 11.7265V11.7265Z" fill="url(#paint7_radial_1681_2281)"/>
<path d="M83.1776 13.3774C83.2085 13.399 83.2359 13.4207 83.2651 13.4423C82.9133 12.8162 82.4749 12.2431 81.9631 11.74C77.6058 7.37304 80.821 2.2707 81.3629 2.01114L81.3687 2.00354C77.8473 4.07067 76.6526 7.8945 76.543 9.80788C76.7063 9.79677 76.869 9.78274 77.0353 9.78274C79.6631 9.78274 81.952 11.2314 83.1776 13.3774Z" fill="url(#paint8_radial_1681_2281)"/>
<path d="M77.0446 14.2496C77.0219 14.6004 75.7899 15.8047 75.3589 15.8047C71.3725 15.8047 70.7256 18.2214 70.7256 18.2214C70.9006 20.2569 72.3157 21.933 74.0277 22.8198C74.1059 22.8601 74.1846 22.8964 74.2611 22.9326C74.3981 22.9911 74.5358 23.0495 74.6729 23.1016C75.26 23.3091 75.8748 23.4273 76.4969 23.4523C83.4838 23.7809 84.8383 15.0798 79.7955 12.5532C81.0864 12.3281 82.4269 12.849 83.1753 13.3757C81.9503 11.2296 79.6608 9.78101 77.033 9.78101C76.8667 9.78101 76.704 9.79504 76.5406 9.80614C75.1345 9.90378 73.7903 10.4237 72.6832 11.298C72.8973 11.4798 73.1388 11.7219 73.6468 12.2234C74.6 13.1658 77.0394 14.1356 77.0446 14.2496V14.2496Z" fill="url(#paint9_radial_1681_2281)"/>
<path d="M77.0446 14.2496C77.0219 14.6004 75.7899 15.8047 75.3589 15.8047C71.3725 15.8047 70.7256 18.2214 70.7256 18.2214C70.9006 20.2569 72.3157 21.933 74.0277 22.8198C74.1059 22.8601 74.1846 22.8964 74.2611 22.9326C74.3981 22.9911 74.5358 23.0495 74.6729 23.1016C75.26 23.3091 75.8748 23.4273 76.4969 23.4523C83.4838 23.7809 84.8383 15.0798 79.7955 12.5532C81.0864 12.3281 82.4269 12.849 83.1753 13.3757C81.9503 11.2296 79.6608 9.78101 77.033 9.78101C76.8667 9.78101 76.704 9.79504 76.5406 9.80614C75.1345 9.90378 73.7903 10.4237 72.6832 11.298C72.8973 11.4798 73.1388 11.7219 73.6468 12.2234C74.6 13.1658 77.0394 14.1356 77.0446 14.2496V14.2496Z" fill="url(#paint10_radial_1681_2281)"/>
<path d="M72.0311 10.8309C72.1448 10.9046 72.2382 10.9666 72.3227 11.0233C72.0034 9.90275 71.9899 8.71688 72.2837 7.58936C70.8435 8.24702 69.7235 9.28468 68.9092 10.2031C68.9751 10.2013 71.0085 10.1645 72.0311 10.8309V10.8309Z" fill="url(#paint11_radial_1681_2281)"/>
<path d="M63.1297 17.2842C64.2117 23.6885 70.0058 28.5821 76.5827 28.7692C82.6707 28.9416 86.5574 25.4002 88.1661 21.9452C89.2044 19.7115 89.9254 16.0572 88.6025 12.4631V12.4362C88.6025 12.4397 88.6025 12.4444 88.6054 12.4596C89.1024 15.714 87.451 18.8667 84.8692 20.9987C84.8666 21.0047 84.8641 21.0108 84.8617 21.0169C79.8306 25.1225 75.0165 23.4938 74.0418 22.8291C73.9741 22.7964 73.9059 22.7625 73.8382 22.7274C70.9047 21.3244 69.6932 18.644 69.9527 16.3471C67.4766 16.3471 66.6319 14.2531 66.6319 14.2531C66.6319 14.2531 68.8555 12.6642 71.7861 14.0462C74.5003 15.3264 77.0493 14.2537 77.0493 14.2531C77.0441 14.1391 74.6047 13.1663 73.6533 12.2269C73.1452 11.7253 72.9037 11.4833 72.6896 11.3015C72.5738 11.2033 72.4527 11.1116 72.3268 11.0267C72.2434 10.9683 72.1518 10.9098 72.0352 10.8344C71.0126 10.168 68.9792 10.2048 68.9121 10.2065H68.9057C68.3498 9.50094 68.3889 7.17367 68.4204 6.68787C68.4139 6.65747 68.0062 6.90008 67.9537 6.93691C67.4632 7.28761 67.0047 7.68122 66.5835 8.11311C66.1043 8.60007 65.6664 9.12628 65.2745 9.68625C64.373 10.9667 63.7336 12.4136 63.3934 13.9433C63.3823 13.9702 62.8835 16.1525 63.1297 17.2842V17.2842Z" fill="url(#paint12_radial_1681_2281)"/>
<path d="M81.9634 11.7399C82.4752 12.2431 82.9135 12.8162 83.2653 13.4423C83.3383 13.4971 83.4083 13.5557 83.4753 13.6176C86.6532 16.55 84.9908 20.7012 84.8642 20.9993C87.446 18.8673 89.0973 15.7146 88.6003 12.4601C87.0155 8.49777 84.3276 6.90065 82.1325 3.42407C82.0211 3.24869 81.9103 3.07331 81.8018 2.88566C81.7406 2.77985 81.691 2.68397 81.6478 2.59336C81.5569 2.41757 81.4866 2.23179 81.4384 2.03975C81.4388 2.03063 81.4358 2.02169 81.43 2.01467C81.4241 2.00765 81.4159 2.00305 81.4069 2.00175C81.3983 1.99942 81.3893 1.99942 81.3807 2.00175C81.3783 2.00281 81.3762 2.00419 81.3742 2.00584C81.3707 2.00584 81.3672 2.00994 81.3637 2.0111C80.8213 2.27066 77.606 7.37301 81.9634 11.7399V11.7399Z" fill="url(#paint13_radial_1681_2281)"/>
<path d="M83.4743 13.6148C83.4073 13.5528 83.3372 13.4943 83.2643 13.4394C83.2357 13.4178 83.206 13.3961 83.1768 13.3745C82.4284 12.8484 81.088 12.3269 79.7971 12.552C84.8393 15.0786 83.4854 23.7797 76.4985 23.4512C75.8764 23.4262 75.2616 23.3079 74.6744 23.1004C74.5374 23.0489 74.3997 22.9922 74.2626 22.9314C74.1833 22.8952 74.1045 22.859 74.0293 22.8186L74.0386 22.8245C75.0133 23.4909 79.8274 25.1196 84.8585 21.0122C84.8585 21.0122 84.8614 21.0046 84.8661 20.9941C84.9909 20.7012 86.6534 16.55 83.4743 13.6148Z" fill="url(#paint14_radial_1681_2281)"/>
<path d="M70.7253 18.2214C70.7253 18.2214 71.3722 15.8047 75.3586 15.8047C75.7897 15.8047 77.0216 14.5992 77.0444 14.2497C77.0671 13.9001 74.4953 15.323 71.7811 14.0427C68.8505 12.6607 66.627 14.2497 66.627 14.2497C66.627 14.2497 67.4716 16.3437 69.9478 16.3437C69.6882 18.6405 70.8997 21.3186 73.8332 22.7239C73.8986 22.7549 73.9604 22.7894 74.0275 22.8198C72.3154 21.9347 70.9021 20.2569 70.7253 18.2214Z" fill="url(#paint15_radial_1681_2281)"/>
<path d="M89.9905 11.7265C89.3816 10.2574 88.1473 8.67139 87.1784 8.17039C87.967 9.72015 88.4232 11.2746 88.5976 12.4344C88.5976 12.4344 88.5976 12.4426 88.6005 12.4578C87.0156 8.49777 84.3277 6.90065 82.1327 3.42407C82.0213 3.24869 81.9105 3.07331 81.802 2.88566C81.7407 2.77985 81.6911 2.68397 81.648 2.59336C81.557 2.41757 81.4867 2.23179 81.4386 2.03975C81.439 2.03063 81.4359 2.02169 81.4301 2.01467C81.4243 2.00765 81.4161 2.00305 81.4071 2.00175C81.3985 1.99942 81.3894 1.99942 81.3808 2.00175C81.3785 2.00281 81.3763 2.00419 81.3744 2.00584C81.3709 2.00584 81.3674 2.00994 81.3639 2.0111L81.3697 2.0035C77.8483 4.07063 76.6536 7.89446 76.544 9.80784C76.7073 9.79673 76.8701 9.78271 77.0363 9.78271C79.6641 9.78271 81.9531 11.2313 83.1786 13.3774C82.4302 12.8512 81.0897 12.3298 79.7989 12.5549C84.841 15.0815 83.4872 23.7826 76.5002 23.454C75.8782 23.429 75.2633 23.3108 74.6762 23.1033C74.5391 23.0518 74.4015 22.9951 74.2644 22.9343C74.1851 22.8981 74.1063 22.8618 74.0311 22.8215L74.0404 22.8273C73.9727 22.7946 73.9045 22.7607 73.8368 22.7256C73.9021 22.7566 73.964 22.7911 74.0311 22.8215C72.3155 21.9347 70.9022 20.2569 70.7254 18.2213C70.7254 18.2213 71.3723 15.8046 75.3587 15.8046C75.7898 15.8046 77.0217 14.5992 77.0445 14.2496C77.0392 14.1356 74.5998 13.1628 73.6484 12.2234C73.1403 11.7218 72.8988 11.4798 72.6848 11.298C72.5689 11.1998 72.4478 11.1081 72.3219 11.0232C72.0026 9.9027 71.9891 8.71683 72.2829 7.58931C70.8427 8.24697 69.7227 9.28463 68.9084 10.203H68.902C68.3461 9.49742 68.3852 7.17015 68.4167 6.68435C68.4102 6.65395 68.0025 6.89656 67.95 6.93339C67.4595 7.2841 67.0009 7.67771 66.5798 8.1096C66.1006 8.59655 65.6627 9.12276 65.2708 9.68274C64.3693 10.9632 63.7299 12.4101 63.3897 13.9398C63.3832 13.9702 63.3774 14.0017 63.371 14.0327C63.3447 14.1561 63.2257 14.7839 63.2094 14.9184C63.2094 14.9289 63.2094 14.9084 63.2094 14.9184C63.1002 15.5671 63.0303 16.2219 63 16.8791V16.951C63 24.7097 69.2765 31 77.0182 31C83.9521 31 89.7088 25.9549 90.8364 19.328C90.8597 19.1485 90.8789 18.9673 90.8999 18.786C91.1788 16.3763 90.869 13.8439 89.9905 11.7265ZM88.5999 12.4479V12.4631V12.4479Z" fill="url(#paint16_linear_1681_2281)"/>
<path d="M147.592 79.8727C147.592 77.2 144.814 72.5864 138.556 72.5864C132.299 72.5864 130 77.8045 130 80.0318C130 72.0773 136.481 66 144.176 66C151.87 66 158 71.7591 158 77.6136C158 82.8318 154.073 84.6455 150.88 84.6455C148.773 84.6455 146.379 83.9455 146.379 82.8318C146.379 81.9727 147.592 81.9727 147.592 79.8727Z" fill="url(#paint17_linear_1681_2281)"/>
<path d="M138.556 72.5864C144.814 72.5864 147.592 77.2 147.592 79.8727C147.592 79.8935 147.592 79.9141 147.591 79.9344C147.56 78.1545 146.358 76.4682 143.984 76.4682C140.983 76.4682 136.928 80.5409 137.471 85.6C137.905 89.6496 141.334 95.0818 148.773 93.1727C148.773 93.1727 147.368 94 143.441 94C136.481 94 130 87.6364 130 80.35C130 80.157 130.003 79.9676 130.009 79.782C130.169 77.4383 132.522 72.5864 138.556 72.5864Z" fill="url(#paint18_linear_1681_2281)"/>
<path d="M138.556 72.5864C144.814 72.5864 147.592 77.2 147.592 79.8727C147.592 79.8935 147.592 79.9141 147.591 79.9344C147.56 78.1545 146.358 76.4682 143.984 76.4682C140.983 76.4682 136.928 80.5409 137.471 85.6C137.905 89.6496 141.334 95.0818 148.773 93.1727C148.773 93.1727 147.368 94 143.441 94C136.481 94 130 87.6364 130 80.35C130 80.157 130.003 79.9676 130.009 79.782C130.169 77.4383 132.522 72.5864 138.556 72.5864Z" fill="url(#paint19_radial_1681_2281)"/>
<path d="M147.907 93.4996C151.892 92.4124 154.74 89.0205 155.255 88.3363C155.829 87.5727 155.989 87.0954 155.829 86.9363C155.67 86.7772 155.446 86.809 154.871 87.0954C154.297 87.3818 150.912 88.7818 147.049 87.6045C143.186 86.4272 140.536 83.3727 140.536 80C140.536 77.3909 142.771 76.4681 143.984 76.4681C140.983 76.4681 136.928 80.5409 137.471 85.6C137.906 89.6496 141.334 95.0818 148.773 93.1727C148.773 93.1727 148.514 93.3254 147.907 93.4996Z" fill="#0E458A"/>
<path d="M147.907 93.4996C151.892 92.4124 154.74 89.0205 155.255 88.3363C155.829 87.5727 155.989 87.0954 155.829 86.9363C155.67 86.7772 155.446 86.809 154.871 87.0954C154.297 87.3818 150.912 88.7818 147.049 87.6045C143.186 86.4272 140.536 83.3727 140.536 80C140.536 77.3909 142.771 76.4681 143.984 76.4681C140.983 76.4681 136.928 80.5409 137.471 85.6C137.906 89.6496 141.334 95.0818 148.773 93.1727C148.773 93.1727 148.514 93.3254 147.907 93.4996Z" fill="url(#paint20_radial_1681_2281)"/>
<defs>
<filter id="filter0_ii_1681_2281" x="53.25" y="48.25" width="54.75" height="61.625" filterUnits="userSpaceOnUse" color-interpolation-filters="sRGB">
<feFlood flood-opacity="0" result="BackgroundImageFix"/>
<feBlend mode="normal" in="SourceGraphic" in2="BackgroundImageFix" result="shape"/>
<feColorMatrix in="SourceAlpha" type="matrix" values="0 0 0 0 0 0 0 0 0 0 0 0 0 0 0 0 0 0 127 0" result="hardAlpha"/>
<feOffset dy="1.875"/>
<feGaussianBlur stdDeviation="3.75"/>
<feComposite in2="hardAlpha" operator="arithmetic" k2="-1" k3="1"/>
<feColorMatrix type="matrix" values="0 0 0 0 1 0 0 0 0 1 0 0 0 0 1 0 0 0 0.5 0"/>
<feBlend mode="normal" in2="shape" result="effect1_innerShadow_1681_2281"/>
<feColorMatrix in="SourceAlpha" type="matrix" values="0 0 0 0 0 0 0 0 0 0 0 0 0 0 0 0 0 0 127 0" result="hardAlpha"/>
<feOffset dx="-3.75" dy="-3.75"/>
<feGaussianBlur stdDeviation="3.75"/>
<feComposite in2="hardAlpha" operator="arithmetic" k2="-1" k3="1"/>
<feColorMatrix type="matrix" values="0 0 0 0 0 0 0 0 0 0 0 0 0 0 0 0 0 0 0.04 0"/>
<feBlend mode="normal" in2="effect1_innerShadow_1681_2281" result="effect2_innerShadow_1681_2281"/>
</filter>
<linearGradient id="paint0_linear_1681_2281" x1="103.394" y1="78.8128" x2="66.2509" y2="65.8633" gradientUnits="userSpaceOnUse">
<stop stop-color="#FF7A00"/>
<stop offset="1" stop-color="#FFA800"/>
</linearGradient>
<linearGradient id="paint1_linear_1681_2281" x1="61.7362" y1="79.6938" x2="103.394" y2="79.6938" gradientUnits="userSpaceOnUse">
<stop stop-color="#F9F03E"/>
<stop offset="1" stop-color="#9DEDA2"/>
</linearGradient>
<linearGradient id="paint2_linear_1681_2281" x1="76.9661" y1="138.98" x2="76.9661" y2="148.959" gradientUnits="userSpaceOnUse">
<stop stop-color="#86BBE5"/>
<stop offset="1" stop-color="#1072BA"/>
</linearGradient>
<linearGradient id="paint3_linear_1681_2281" x1="14.6655" y1="66.4564" x2="14.6655" y2="93.5926" gradientUnits="userSpaceOnUse">
<stop offset="0.3" stop-color="#FF1B2D"/>
<stop offset="0.4381" stop-color="#FA1A2C"/>
<stop offset="0.5939" stop-color="#ED1528"/>
<stop offset="0.7581" stop-color="#D60E21"/>
<stop offset="0.9272" stop-color="#B70519"/>
<stop offset="1" stop-color="#A70014"/>
</linearGradient>
<linearGradient id="paint4_linear_1681_2281" x1="21.696" y1="68.0559" x2="21.696" y2="92.0564" gradientUnits="userSpaceOnUse">
<stop stop-color="#9C0000"/>
<stop offset="0.7" stop-color="#FF4B4B"/>
</linearGradient>
<linearGradient id="paint5_linear_1681_2281" x1="88.135" y1="6.49261" x2="64.8139" y2="28.9437" gradientUnits="userSpaceOnUse">
<stop offset="0.05" stop-color="#FFF44F"/>
<stop offset="0.11" stop-color="#FFE847"/>
<stop offset="0.22" stop-color="#FFC830"/>
<stop offset="0.37" stop-color="#FF980E"/>
<stop offset="0.4" stop-color="#FF8B16"/>
<stop offset="0.46" stop-color="#FF672A"/>
<stop offset="0.53" stop-color="#FF3647"/>
<stop offset="0.7" stop-color="#E31587"/>
</linearGradient>
<radialGradient id="paint6_radial_1681_2281" cx="0" cy="0" r="1" gradientUnits="userSpaceOnUse" gradientTransform="translate(87.0596 5.21879) scale(29.2246 29.2888)">
<stop offset="0.13" stop-color="#FFBD4F"/>
<stop offset="0.19" stop-color="#FFAC31"/>
<stop offset="0.25" stop-color="#FF9D17"/>
<stop offset="0.28" stop-color="#FF980E"/>
<stop offset="0.4" stop-color="#FF563B"/>
<stop offset="0.47" stop-color="#FF3750"/>
<stop offset="0.71" stop-color="#F5156C"/>
<stop offset="0.78" stop-color="#EB0878"/>
<stop offset="0.86" stop-color="#E50080"/>
</radialGradient>
<radialGradient id="paint7_radial_1681_2281" cx="0" cy="0" r="1" gradientUnits="userSpaceOnUse" gradientTransform="translate(76.3809 17.1925) scale(29.2246 29.2888)">
<stop offset="0.3" stop-color="#960E18"/>
<stop offset="0.35" stop-color="#B11927" stop-opacity="0.74"/>
<stop offset="0.43" stop-color="#DB293D" stop-opacity="0.34"/>
<stop offset="0.5" stop-color="#F5334B" stop-opacity="0.09"/>
<stop offset="0.53" stop-color="#FF3750" stop-opacity="0"/>
</radialGradient>
<radialGradient id="paint8_radial_1681_2281" cx="0" cy="0" r="1" gradientUnits="userSpaceOnUse" gradientTransform="translate(79.904 -1.42803) scale(21.172 21.2184)">
<stop offset="0.13" stop-color="#FFF44F"/>
<stop offset="0.25" stop-color="#FFDC3E"/>
<stop offset="0.51" stop-color="#FF9D12"/>
<stop offset="0.53" stop-color="#FF980E"/>
</radialGradient>
<radialGradient id="paint9_radial_1681_2281" cx="0" cy="0" r="1" gradientUnits="userSpaceOnUse" gradientTransform="translate(73.1487 24.8431) scale(13.915 13.9455)">
<stop offset="0.35" stop-color="#3A8EE6"/>
<stop offset="0.47" stop-color="#5C79F0"/>
<stop offset="0.67" stop-color="#9059FF"/>
<stop offset="1" stop-color="#C139E6"/>
</radialGradient>
<radialGradient id="paint10_radial_1681_2281" cx="0" cy="0" r="1" gradientUnits="userSpaceOnUse" gradientTransform="translate(76.8005 13.7116) rotate(-13.9265) scale(7.37316 8.67852)">
<stop offset="0.21" stop-color="#9059FF" stop-opacity="0"/>
<stop offset="0.28" stop-color="#8C4FF3" stop-opacity="0.06"/>
<stop offset="0.75" stop-color="#7716A8" stop-opacity="0.45"/>
<stop offset="0.97" stop-color="#6E008B" stop-opacity="0.6"/>
</radialGradient>
<radialGradient id="paint11_radial_1681_2281" cx="0" cy="0" r="1" gradientUnits="userSpaceOnUse" gradientTransform="translate(76.011 4.02041) scale(10.0108 10.0328)">
<stop stop-color="#FFE226"/>
<stop offset="0.12" stop-color="#FFDB27"/>
<stop offset="0.3" stop-color="#FFC82A"/>
<stop offset="0.5" stop-color="#FFA930"/>
<stop offset="0.73" stop-color="#FF7E37"/>
<stop offset="0.79" stop-color="#FF7139"/>
</radialGradient>
<radialGradient id="paint12_radial_1681_2281" cx="0" cy="0" r="1" gradientUnits="userSpaceOnUse" gradientTransform="translate(83.8805 -2.34294) scale(42.7109 42.8046)">
<stop offset="0.11" stop-color="#FFF44F"/>
<stop offset="0.46" stop-color="#FF980E"/>
<stop offset="0.62" stop-color="#FF5634"/>
<stop offset="0.72" stop-color="#FF3647"/>
<stop offset="0.9" stop-color="#E31587"/>
</radialGradient>
<radialGradient id="paint13_radial_1681_2281" cx="0" cy="0" r="1" gradientUnits="userSpaceOnUse" gradientTransform="translate(79.7517 2.33374) rotate(84.2447) scale(31.1996 20.4543)">
<stop stop-color="#FFF44F"/>
<stop offset="0.06" stop-color="#FFE847"/>
<stop offset="0.17" stop-color="#FFC830"/>
<stop offset="0.3" stop-color="#FF980E"/>
<stop offset="0.36" stop-color="#FF8B16"/>
<stop offset="0.45" stop-color="#FF672A"/>
<stop offset="0.57" stop-color="#FF3647"/>
<stop offset="0.74" stop-color="#E31587"/>
</radialGradient>
<radialGradient id="paint14_radial_1681_2281" cx="0" cy="0" r="1" gradientUnits="userSpaceOnUse" gradientTransform="translate(75.7757 7.73608) scale(26.6644 26.723)">
<stop offset="0.14" stop-color="#FFF44F"/>
<stop offset="0.48" stop-color="#FF980E"/>
<stop offset="0.59" stop-color="#FF5634"/>
<stop offset="0.66" stop-color="#FF3647"/>
<stop offset="0.9" stop-color="#E31587"/>
</radialGradient>
<radialGradient id="paint15_radial_1681_2281" cx="0" cy="0" r="1" gradientUnits="userSpaceOnUse" gradientTransform="translate(82.8145 9.30047) scale(29.1844 29.2484)">
<stop offset="0.09" stop-color="#FFF44F"/>
<stop offset="0.23" stop-color="#FFE141"/>
<stop offset="0.51" stop-color="#FFAF1E"/>
<stop offset="0.63" stop-color="#FF980E"/>
</radialGradient>
<linearGradient id="paint16_linear_1681_2281" x1="87.855" y1="6.37218" x2="68.0104" y2="26.1739" gradientUnits="userSpaceOnUse">
<stop offset="0.17" stop-color="#FFF44F" stop-opacity="0.8"/>
<stop offset="0.27" stop-color="#FFF44F" stop-opacity="0.63"/>
<stop offset="0.49" stop-color="#FFF44F" stop-opacity="0.22"/>
<stop offset="0.6" stop-color="#FFF44F" stop-opacity="0"/>
</linearGradient>
<linearGradient id="paint17_linear_1681_2281" x1="156.372" y1="82.5455" x2="128.988" y2="76.0765" gradientUnits="userSpaceOnUse">
<stop stop-color="#3BCC50"/>
<stop offset="0.489583" stop-color="#2ABAD6"/>
<stop offset="1" stop-color="#7DCFE7"/>
</linearGradient>
<linearGradient id="paint18_linear_1681_2281" x1="139.387" y1="72.5864" x2="139.387" y2="94" gradientUnits="userSpaceOnUse">
<stop stop-color="#035989"/>
<stop offset="0.265625" stop-color="#1175B6"/>
<stop offset="1" stop-color="#0470CF"/>
</linearGradient>
<radialGradient id="paint19_radial_1681_2281" cx="0" cy="0" r="1" gradientUnits="userSpaceOnUse" gradientTransform="translate(138.94 82.9909) rotate(59.2143) scale(9.48152 9.49698)">
<stop stop-color="#1284D8"/>
<stop offset="0.813899" stop-color="#1170B2" stop-opacity="0.767762"/>
<stop offset="1" stop-color="#0E649B" stop-opacity="0.65"/>
</radialGradient>
<radialGradient id="paint20_radial_1681_2281" cx="0" cy="0" r="1" gradientUnits="userSpaceOnUse" gradientTransform="translate(146.666 85.6) rotate(77.9982) scale(7.6769 8.28824)">
<stop stop-color="#104890"/>
<stop offset="0.69943" stop-color="#12529E" stop-opacity="0.70624"/>
<stop offset="1" stop-color="#0E4584" stop-opacity="0.58"/>
</radialGradient>
</defs>
</svg>
