<svg width="23" height="24" viewBox="0 0 23 24" fill="none" xmlns="http://www.w3.org/2000/svg">
<path d="M22.337 8.0495C21.833 6.83371 20.8115 5.52115 20.0097 5.10653C20.6624 6.38909 21.0399 7.67552 21.1842 8.63539C21.1842 8.63539 21.1842 8.64216 21.1866 8.65474C19.875 5.37746 17.6505 4.05571 15.834 1.17854C15.7418 1.0334 15.65 0.888259 15.5603 0.732958C15.5096 0.64539 15.4685 0.566047 15.4328 0.491057C15.3575 0.345579 15.2994 0.191828 15.2595 0.0328964C15.2598 0.0253491 15.2573 0.0179533 15.2525 0.012143C15.2477 0.00633261 15.2409 0.00252172 15.2334 0.00144922C15.2263 -0.000483074 15.2188 -0.000483074 15.2117 0.00144922C15.2098 0.00232536 15.208 0.0034652 15.2064 0.00483584C15.2035 0.00483584 15.2006 0.00822246 15.1977 0.00919006L15.2025 0.00290063C12.2882 1.71363 11.2996 4.87818 11.2088 6.46166C10.0442 6.54148 8.93071 6.97124 8.01354 7.69488C7.91767 7.61363 7.81743 7.53772 7.71327 7.46749C7.44895 6.54017 7.43778 5.55875 7.68093 4.62563C6.48903 5.16991 5.56217 6.02866 4.88826 6.78871H4.88295C4.42289 6.20476 4.45524 4.27875 4.4813 3.87671C4.47599 3.85155 4.13856 4.05233 4.09511 4.08281C3.68916 4.37305 3.30968 4.69879 2.96115 5.05622C2.56453 5.45921 2.20218 5.8947 1.87787 6.35813C1.13174 7.41785 0.602599 8.61527 0.321024 9.88118C0.315714 9.90634 0.310887 9.93246 0.305576 9.9581C0.283853 10.0602 0.205166 10.5725 0.191166 10.6838V10.7094C0.0885867 11.2388 0.0246949 11.775 0 12.3137V12.3732C0 18.7943 5.19432 24 11.6013 24C17.3397 24 22.1038 19.8248 23.037 14.3404C23.0563 14.1919 23.0722 14.0419 23.0896 13.8919C23.3204 11.8977 23.064 9.80184 22.337 8.0495ZM8.96502 17.1508C9.01909 17.1764 9.07026 17.205 9.12578 17.2301L9.1335 17.235C9.07798 17.2079 9.0215 17.1798 8.96551 17.1508H8.96502ZM21.1876 8.66006V8.64893V8.66151V8.66006Z" fill="url(#paint0_linear_1773_1823)"/>
<path d="M22.337 8.04951C21.833 6.83371 20.8116 5.52116 20.0097 5.10654C20.6624 6.3891 21.0399 7.67553 21.1842 8.63539V8.6591C22.2791 11.6335 21.6824 14.6582 20.8231 16.5064C19.4937 19.3656 16.2752 22.2965 11.2368 22.1538C5.79776 21.999 1.00267 17.9491 0.107186 12.649C-0.0559817 11.8125 0.107186 11.3882 0.189252 10.7095C0.0893241 11.2324 0.0511874 11.3839 0.00146484 12.3137V12.3732C0.00146484 18.7943 5.19578 24 11.6027 24C17.3411 24 22.1053 19.8248 23.0384 14.3404C23.0578 14.1919 23.0737 14.0419 23.0911 13.8919C23.3204 11.8977 23.064 9.80184 22.337 8.04951Z" fill="url(#paint1_radial_1773_1823)"/>
<path d="M22.337 8.04951C21.833 6.83371 20.8116 5.52116 20.0097 5.10654C20.6624 6.3891 21.0399 7.67553 21.1842 8.63539V8.6591C22.2791 11.6335 21.6824 14.6582 20.8231 16.5064C19.4937 19.3656 16.2752 22.2965 11.2368 22.1538C5.79776 21.999 1.00267 17.9491 0.107186 12.649C-0.0559817 11.8125 0.107186 11.3882 0.189252 10.7095C0.0893241 11.2324 0.0511874 11.3839 0.00146484 12.3137V12.3732C0.00146484 18.7943 5.19578 24 11.6027 24C17.3411 24 22.1053 19.8248 23.0384 14.3404C23.0578 14.1919 23.0737 14.0419 23.0911 13.8919C23.3204 11.8977 23.064 9.80184 22.337 8.04951Z" fill="url(#paint2_radial_1773_1823)"/>
<path d="M16.6992 9.41579C16.7248 9.43369 16.7475 9.45159 16.7716 9.46949C16.4805 8.95137 16.1177 8.47707 15.6941 8.06066C12.0881 4.44666 14.7489 0.224027 15.1974 0.00921912L15.2022 0.00292969C12.2879 1.71366 11.2993 4.87821 11.2085 6.46169C11.3437 6.4525 11.4783 6.44089 11.6159 6.44089C13.7907 6.44089 15.685 7.63975 16.6992 9.41579Z" fill="url(#paint3_radial_1773_1823)"/>
<path d="M11.6231 10.1376C11.6043 10.4279 10.5847 11.4246 10.228 11.4246C6.92892 11.4246 6.39355 13.4246 6.39355 13.4246C6.53838 15.1092 7.70951 16.4963 9.12636 17.2302C9.19105 17.2636 9.25622 17.2936 9.31946 17.3236C9.43291 17.3719 9.54683 17.4203 9.66028 17.4634C10.1462 17.6351 10.655 17.733 11.1698 17.7537C16.9521 18.0256 18.073 10.8246 13.8997 8.73364C14.968 8.54738 16.0774 8.97845 16.6967 9.41435C15.683 7.63831 13.7882 6.43945 11.6135 6.43945C11.4759 6.43945 11.3412 6.45106 11.206 6.46026C10.0423 6.54106 8.92984 6.97131 8.01364 7.69492C8.19081 7.84538 8.39066 8.04568 8.81113 8.46078C9.59993 9.24067 11.6188 10.0433 11.6231 10.1376Z" fill="url(#paint4_radial_1773_1823)"/>
<path d="M11.6231 10.1376C11.6043 10.4279 10.5847 11.4246 10.228 11.4246C6.92892 11.4246 6.39355 13.4246 6.39355 13.4246C6.53838 15.1092 7.70951 16.4963 9.12636 17.2302C9.19105 17.2636 9.25622 17.2936 9.31946 17.3236C9.43291 17.3719 9.54683 17.4203 9.66028 17.4634C10.1462 17.6351 10.655 17.733 11.1698 17.7537C16.9521 18.0256 18.073 10.8246 13.8997 8.73364C14.968 8.54738 16.0774 8.97845 16.6967 9.41435C15.683 7.63831 13.7882 6.43945 11.6135 6.43945C11.4759 6.43945 11.3412 6.45106 11.206 6.46026C10.0423 6.54106 8.92984 6.97131 8.01364 7.69492C8.19081 7.84538 8.39066 8.04568 8.81113 8.46078C9.59993 9.24067 11.6188 10.0433 11.6231 10.1376Z" fill="url(#paint5_radial_1773_1823)"/>
<path d="M7.47427 7.30836C7.5684 7.36931 7.64564 7.4206 7.71564 7.46753C7.45132 6.54021 7.44015 5.55879 7.68329 4.62567C6.4914 5.16995 5.56453 6.0287 4.89062 6.78875C4.94517 6.7873 6.62802 6.75682 7.47427 7.30836Z" fill="url(#paint6_radial_1773_1823)"/>
<path d="M0.107204 12.649C1.00269 17.9491 5.79778 21.999 11.2407 22.1538C16.2791 22.2965 19.4956 19.3656 20.827 16.5064C21.6863 14.6578 22.283 11.6335 21.1881 8.6591V8.63685C21.1881 8.63975 21.1881 8.64362 21.1905 8.6562C21.6018 11.3495 20.2352 13.9587 18.0986 15.7231C18.0964 15.728 18.0943 15.733 18.0923 15.7381C13.9286 19.1358 9.94454 17.788 9.13788 17.2379C9.08188 17.2108 9.0254 17.1827 8.9694 17.1537C6.54169 15.9926 5.53903 13.7743 5.75385 11.8735C3.70461 11.8735 3.00559 10.1405 3.00559 10.1405C3.00559 10.1405 4.84581 8.82553 7.27111 9.96924C9.51732 11.0288 11.6269 10.141 11.6269 10.1405C11.6226 10.0462 9.60373 9.24111 8.81637 8.46364C8.3959 8.04854 8.19605 7.84825 8.01888 7.69778C7.92302 7.61654 7.82278 7.54063 7.71862 7.4704C7.64958 7.42202 7.57379 7.37364 7.47724 7.31123C6.631 6.75969 4.94815 6.79017 4.89264 6.79162H4.88733C4.42727 6.20767 4.45962 4.28166 4.48568 3.87962C4.48037 3.85446 4.14294 4.05524 4.09949 4.08572C3.69354 4.37596 3.31406 4.7017 2.96553 5.05913C2.56891 5.46212 2.20656 5.89761 1.88225 6.36104C1.13612 7.42076 0.606979 8.61818 0.325404 9.88409C0.316232 9.90634 -0.0965133 11.7124 0.107204 12.649Z" fill="url(#paint7_radial_1773_1823)"/>
<path d="M15.694 8.06063C16.1176 8.47704 16.4803 8.95134 16.7715 9.46946C16.8318 9.51488 16.8898 9.56332 16.9453 9.6146C19.5753 12.0414 18.1995 15.4768 18.0947 15.7236C20.2313 13.9592 21.598 11.35 21.1867 8.65668C19.8751 5.37746 17.6506 4.05571 15.834 1.17854C15.7418 1.0334 15.6501 0.888259 15.5603 0.732959C15.5096 0.64539 15.4686 0.566047 15.4329 0.491057C15.3576 0.345579 15.2994 0.191828 15.2596 0.0328964C15.2599 0.0253491 15.2574 0.0179533 15.2526 0.012143C15.2477 0.00633261 15.2409 0.00252172 15.2335 0.00144922C15.2264 -0.000483074 15.2189 -0.000483074 15.2118 0.00144922C15.2098 0.00232536 15.2081 0.0034652 15.2065 0.00483584C15.2036 0.00483584 15.2007 0.00822246 15.1978 0.00919006C14.7488 0.223998 12.0879 4.44663 15.694 8.06063Z" fill="url(#paint8_radial_1773_1823)"/>
<path d="M16.9445 9.61219C16.889 9.56091 16.831 9.51247 16.7707 9.46705C16.7471 9.44915 16.7224 9.43125 16.6983 9.41335C16.0789 8.97793 14.9696 8.54638 13.9013 8.73264C18.0741 10.8236 16.9537 18.0246 11.1714 17.7527C10.6566 17.732 10.1477 17.6341 9.66184 17.4624C9.5484 17.4198 9.43447 17.3729 9.32103 17.3226C9.25537 17.2926 9.1902 17.2626 9.12793 17.2292L9.13565 17.234C9.94232 17.7856 13.9264 19.1334 18.09 15.7342C18.09 15.7342 18.0925 15.7279 18.0963 15.7192C18.1996 15.4768 19.5754 12.0414 16.9445 9.61219Z" fill="url(#paint9_radial_1773_1823)"/>
<path d="M6.39322 13.4246C6.39322 13.4246 6.92858 11.4246 10.2276 11.4246C10.5844 11.4246 11.6039 10.427 11.6228 10.1376C11.6416 9.84833 9.51319 11.0259 7.26698 9.96638C4.84168 8.82267 3.00146 10.1376 3.00146 10.1376C3.00146 10.1376 3.70048 11.8706 5.74972 11.8706C5.5349 13.7715 6.53756 15.9878 8.96527 17.1508C9.01934 17.1765 9.07051 17.205 9.12603 17.2302C7.70918 16.4977 6.53949 15.1092 6.39322 13.4246Z" fill="url(#paint10_radial_1773_1823)"/>
<path d="M22.337 8.0495C21.833 6.83371 20.8115 5.52115 20.0097 5.10653C20.6624 6.38909 21.0399 7.67552 21.1842 8.63539C21.1842 8.63539 21.1842 8.64216 21.1866 8.65474C19.875 5.37746 17.6505 4.05571 15.834 1.17854C15.7418 1.0334 15.65 0.888259 15.5603 0.732958C15.5096 0.64539 15.4685 0.566047 15.4328 0.491057C15.3575 0.345579 15.2994 0.191828 15.2595 0.0328964C15.2598 0.0253491 15.2573 0.0179533 15.2525 0.012143C15.2477 0.00633261 15.2409 0.00252172 15.2334 0.00144922C15.2263 -0.000483074 15.2188 -0.000483074 15.2117 0.00144922C15.2098 0.00232536 15.208 0.0034652 15.2064 0.00483584C15.2035 0.00483584 15.2006 0.00822246 15.1977 0.00919006L15.2025 0.00290063C12.2882 1.71363 11.2996 4.87818 11.2088 6.46166C11.344 6.45247 11.4787 6.44086 11.6162 6.44086C13.791 6.44086 15.6853 7.63972 16.6995 9.41576C16.0802 8.98034 14.9708 8.54879 13.9025 8.73505C18.0753 10.826 16.9549 18.027 11.1726 17.7551C10.6578 17.7344 10.149 17.6365 9.66307 17.4648C9.54962 17.4222 9.4357 17.3753 9.32225 17.325C9.2566 17.295 9.19143 17.265 9.12916 17.2316L9.13688 17.2364C9.08088 17.2093 9.0244 17.1813 8.9684 17.1522C9.02247 17.1779 9.07364 17.2064 9.12916 17.2316C7.70941 16.4977 6.53972 15.1091 6.39345 13.4245C6.39345 13.4245 6.92881 11.4245 10.2279 11.4245C10.5846 11.4245 11.6042 10.4269 11.623 10.1376C11.6187 10.0433 9.59983 9.23821 8.81248 8.46074C8.39201 8.04563 8.19215 7.84534 8.01498 7.69488C7.91912 7.61363 7.81888 7.53772 7.71472 7.46749C7.4504 6.54017 7.43923 5.55875 7.68237 4.62563C6.49048 5.16991 5.56361 6.02866 4.88971 6.78871H4.8844C4.42434 6.20476 4.45668 4.27875 4.48275 3.87671C4.47744 3.85155 4.14001 4.05233 4.09656 4.08281C3.6906 4.37305 3.31113 4.69879 2.96259 5.05622C2.56598 5.45921 2.20362 5.8947 1.87932 6.35813C1.13319 7.41785 0.604047 8.61527 0.322472 9.88118C0.317162 9.90634 0.312335 9.93246 0.307025 9.9581C0.285301 10.0602 0.186822 10.5798 0.173305 10.6911C0.173305 10.6998 0.173305 10.6828 0.173305 10.6911C0.0829151 11.228 0.025041 11.7698 0 12.3137V12.3732C0 18.7943 5.19432 24 11.6013 24C17.3397 24 22.1038 19.8248 23.037 14.3404C23.0563 14.1919 23.0722 14.0419 23.0896 13.8919C23.3204 11.8977 23.064 9.80184 22.337 8.0495ZM21.1861 8.64651V8.65909V8.64651Z" fill="url(#paint11_linear_1773_1823)"/>
<defs>
<linearGradient id="paint0_linear_1773_1823" x1="20.8014" y1="3.71802" x2="1.50118" y2="22.2983" gradientUnits="userSpaceOnUse">
<stop offset="0.05" stop-color="#FFF44F"/>
<stop offset="0.11" stop-color="#FFE847"/>
<stop offset="0.22" stop-color="#FFC830"/>
<stop offset="0.37" stop-color="#FF980E"/>
<stop offset="0.4" stop-color="#FF8B16"/>
<stop offset="0.46" stop-color="#FF672A"/>
<stop offset="0.53" stop-color="#FF3647"/>
<stop offset="0.7" stop-color="#E31587"/>
</linearGradient>
<radialGradient id="paint1_radial_1773_1823" cx="0" cy="0" r="1" gradientUnits="userSpaceOnUse" gradientTransform="translate(19.9112 2.66382) scale(24.1859 24.239)">
<stop offset="0.13" stop-color="#FFBD4F"/>
<stop offset="0.19" stop-color="#FFAC31"/>
<stop offset="0.25" stop-color="#FF9D17"/>
<stop offset="0.28" stop-color="#FF980E"/>
<stop offset="0.4" stop-color="#FF563B"/>
<stop offset="0.47" stop-color="#FF3750"/>
<stop offset="0.71" stop-color="#F5156C"/>
<stop offset="0.78" stop-color="#EB0878"/>
<stop offset="0.86" stop-color="#E50080"/>
</radialGradient>
<radialGradient id="paint2_radial_1773_1823" cx="0" cy="0" r="1" gradientUnits="userSpaceOnUse" gradientTransform="translate(11.0737 12.5731) scale(24.1859 24.239)">
<stop offset="0.3" stop-color="#960E18"/>
<stop offset="0.35" stop-color="#B11927" stop-opacity="0.74"/>
<stop offset="0.43" stop-color="#DB293D" stop-opacity="0.34"/>
<stop offset="0.5" stop-color="#F5334B" stop-opacity="0.09"/>
<stop offset="0.53" stop-color="#FF3750" stop-opacity="0"/>
</radialGradient>
<radialGradient id="paint3_radial_1773_1823" cx="0" cy="0" r="1" gradientUnits="userSpaceOnUse" gradientTransform="translate(13.9901 -2.83699) scale(17.5216 17.5601)">
<stop offset="0.13" stop-color="#FFF44F"/>
<stop offset="0.25" stop-color="#FFDC3E"/>
<stop offset="0.51" stop-color="#FF9D12"/>
<stop offset="0.53" stop-color="#FF980E"/>
</radialGradient>
<radialGradient id="paint4_radial_1773_1823" cx="0" cy="0" r="1" gradientUnits="userSpaceOnUse" gradientTransform="translate(8.39887 18.9046) scale(11.5158 11.5411)">
<stop offset="0.35" stop-color="#3A8EE6"/>
<stop offset="0.47" stop-color="#5C79F0"/>
<stop offset="0.67" stop-color="#9059FF"/>
<stop offset="1" stop-color="#C139E6"/>
</radialGradient>
<radialGradient id="paint5_radial_1773_1823" cx="0" cy="0" r="1" gradientUnits="userSpaceOnUse" gradientTransform="translate(11.4211 9.69238) rotate(-13.9265) scale(6.10193 7.18222)">
<stop offset="0.21" stop-color="#9059FF" stop-opacity="0"/>
<stop offset="0.28" stop-color="#8C4FF3" stop-opacity="0.06"/>
<stop offset="0.75" stop-color="#7716A8" stop-opacity="0.45"/>
<stop offset="0.97" stop-color="#6E008B" stop-opacity="0.6"/>
</radialGradient>
<radialGradient id="paint6_radial_1773_1823" cx="0" cy="0" r="1" gradientUnits="userSpaceOnUse" gradientTransform="translate(10.768 1.67206) scale(8.28484 8.30302)">
<stop stop-color="#FFE226"/>
<stop offset="0.12" stop-color="#FFDB27"/>
<stop offset="0.3" stop-color="#FFC82A"/>
<stop offset="0.5" stop-color="#FFA930"/>
<stop offset="0.73" stop-color="#FF7E37"/>
<stop offset="0.79" stop-color="#FF7139"/>
</radialGradient>
<radialGradient id="paint7_radial_1773_1823" cx="0" cy="0" r="1" gradientUnits="userSpaceOnUse" gradientTransform="translate(17.2803 -3.59416) scale(35.3469 35.4245)">
<stop offset="0.11" stop-color="#FFF44F"/>
<stop offset="0.46" stop-color="#FF980E"/>
<stop offset="0.62" stop-color="#FF5634"/>
<stop offset="0.72" stop-color="#FF3647"/>
<stop offset="0.9" stop-color="#E31587"/>
</radialGradient>
<radialGradient id="paint8_radial_1773_1823" cx="0" cy="0" r="1" gradientUnits="userSpaceOnUse" gradientTransform="translate(13.8636 0.276201) rotate(84.2447) scale(25.8204 16.9277)">
<stop stop-color="#FFF44F"/>
<stop offset="0.06" stop-color="#FFE847"/>
<stop offset="0.17" stop-color="#FFC830"/>
<stop offset="0.3" stop-color="#FF980E"/>
<stop offset="0.36" stop-color="#FF8B16"/>
<stop offset="0.45" stop-color="#FF672A"/>
<stop offset="0.57" stop-color="#FF3647"/>
<stop offset="0.74" stop-color="#E31587"/>
</radialGradient>
<radialGradient id="paint9_radial_1773_1823" cx="0" cy="0" r="1" gradientUnits="userSpaceOnUse" gradientTransform="translate(10.5733 4.74708) scale(22.0671 22.1156)">
<stop offset="0.14" stop-color="#FFF44F"/>
<stop offset="0.48" stop-color="#FF980E"/>
<stop offset="0.59" stop-color="#FF5634"/>
<stop offset="0.66" stop-color="#FF3647"/>
<stop offset="0.9" stop-color="#E31587"/>
</radialGradient>
<radialGradient id="paint10_radial_1773_1823" cx="0" cy="0" r="1" gradientUnits="userSpaceOnUse" gradientTransform="translate(16.3981 6.04178) scale(24.1526 24.2056)">
<stop offset="0.09" stop-color="#FFF44F"/>
<stop offset="0.23" stop-color="#FFE141"/>
<stop offset="0.51" stop-color="#FFAF1E"/>
<stop offset="0.63" stop-color="#FF980E"/>
</radialGradient>
<linearGradient id="paint11_linear_1773_1823" x1="20.5697" y1="3.61836" x2="4.14656" y2="20.006" gradientUnits="userSpaceOnUse">
<stop offset="0.17" stop-color="#FFF44F" stop-opacity="0.8"/>
<stop offset="0.27" stop-color="#FFF44F" stop-opacity="0.63"/>
<stop offset="0.49" stop-color="#FFF44F" stop-opacity="0.22"/>
<stop offset="0.6" stop-color="#FFF44F" stop-opacity="0"/>
</linearGradient>
</defs>
</svg>
