<?xml version="1.0" encoding="UTF-8"?>
<!-- Generator: Adobe Illustrator 26.0.2, SVG Export Plug-In . SVG Version: 6.00 Build 0)  -->
<svg version="1.1" id="Layer_1" xmlns="http://www.w3.org/2000/svg" xmlns:xlink="http://www.w3.org/1999/xlink" x="0px" y="0px" width="96.3px" height="96.3px" viewBox="0 0 96.3 96.3" enable-background="new 0 0 96.3 96.3" xml:space="preserve">
<rect id="bounding_box_10_" fill="none" width="96" height="96"/>
<g id="Art_layer">
	<path fill="#EA4335" d="M46.884,45.762L10.337,84.18c0.002,0.008,0.004,0.016,0.006,0.023c1.121,4.171,4.967,7.243,9.534,7.243   c1.824,0,3.538-0.489,5.008-1.346l0.116-0.069l41.138-23.509L46.884,45.762z"/>
	<path fill="#FBBC04" d="M83.858,39.22l-0.035-0.023l-17.76-10.198L46.054,46.634l20.079,19.883L83.8,56.422   c3.097-1.657,5.2-4.89,5.2-8.618C89,44.099,86.926,40.883,83.858,39.22z"/>
	<path fill="#4285F4" d="M10.335,11.264C10.116,12.067,10,12.909,10,13.78v67.886c0.036,0.974,0.115,1.715,0.337,2.514   l37.804-37.434L10.335,11.264z"/>
	<path fill="#34A853" d="M47.154,47.723l18.915-18.73L24.978,5.398C23.485,4.512,21.742,4,19.877,4c-4.567,0-8.419,3.078-9.54,7.255   c-0.001,0.003-0.001,0.006-0.002,0.01L47.154,47.723z"/>
</g>
</svg>