<svg width="199" height="36" viewBox="0 0 199 36" fill="none" xmlns="http://www.w3.org/2000/svg">
<path d="M22.917 15.9545L21.667 13.9091H13.7503L18.3337 0L1.66699 20.4545H10.0003L6.66699 35.1818L22.917 15.9545Z" fill="url(#paint0_linear_1890_5487)"/>
<path d="M22.917 15.9545L21.667 13.9091H13.7503L18.3337 0L1.66699 20.4545H10.0003L6.66699 35.1818L22.917 15.9545Z" fill="url(#paint1_linear_1890_5487)"/>
<path d="M21.667 13.9092L22.917 15.9546L9.16699 35.1819H6.66699L21.667 13.9092Z" fill="url(#paint2_linear_1890_5487)"/>
<path d="M21.667 13.9092L22.917 15.9546L9.16699 35.1819H6.66699L21.667 13.9092Z" fill="#2E6CFF" fill-opacity="0.5"/>
<path d="M9.58366 22.091H3.75033L1.66699 20.4546H10.0003L9.58366 22.091Z" fill="url(#paint3_linear_1890_5487)"/>
<path d="M9.58366 22.091H3.75033L1.66699 20.4546H10.0003L9.58366 22.091Z" fill="#2E6CFF" fill-opacity="0.5"/>
<path d="M20 2.04554L16.25 13.9092L13.75 13.9092L18.3333 0.000103923L20 2.04554Z" fill="url(#paint4_linear_1890_5487)"/>
<path d="M20 2.04554L16.25 13.9092L13.75 13.9092L18.3333 0.000103923L20 2.04554Z" fill="#2E6CFF" fill-opacity="0.5"/>
<path d="M40.3023 29.3809H32.8775V10.0839H40.227C42.2119 10.0839 43.9268 10.4702 45.3716 11.2428C46.8226 12.0092 47.9407 13.1147 48.7259 14.5595C49.5174 15.998 49.9131 17.7223 49.9131 19.7324C49.9131 21.7425 49.5205 23.4699 48.7354 24.9147C47.9502 26.3531 46.8383 27.4587 45.3998 28.2313C43.9614 28.9977 42.2622 29.3809 40.3023 29.3809ZM38.1164 24.9335H40.1139C41.0687 24.9335 41.8822 24.7796 42.5543 24.4718C43.2327 24.164 43.7478 23.6332 44.0996 22.8794C44.4576 22.1257 44.6366 21.0766 44.6366 19.7324C44.6366 18.3881 44.4545 17.3391 44.0901 16.5853C43.7321 15.8315 43.2044 15.3007 42.5072 14.9929C41.8162 14.6851 40.9682 14.5312 39.9631 14.5312H38.1164V24.9335ZM59.385 29.6447C57.8146 29.6447 56.4703 29.3337 55.3522 28.7119C54.2341 28.0837 53.3766 27.2106 52.7799 26.0925C52.1831 24.9681 51.8848 23.6646 51.8848 22.1822C51.8848 20.6997 52.1831 19.3995 52.7799 18.2813C53.3766 17.1569 54.2341 16.2838 55.3522 15.6619C56.4703 15.0338 57.8146 14.7197 59.385 14.7197C60.9554 14.7197 62.2996 15.0338 63.4177 15.6619C64.5358 16.2838 65.3933 17.1569 65.99 18.2813C66.5868 19.3995 66.8852 20.6997 66.8852 22.1822C66.8852 23.6646 66.5868 24.9681 65.99 26.0925C65.3933 27.2106 64.5358 28.0837 63.4177 28.7119C62.2996 29.3337 60.9554 29.6447 59.385 29.6447ZM59.4227 25.8004C59.8624 25.8004 60.2424 25.6528 60.5628 25.3575C60.8831 25.0623 61.1312 24.6414 61.3071 24.0949C61.483 23.5484 61.5709 22.8983 61.5709 22.1445C61.5709 21.3844 61.483 20.7343 61.3071 20.1941C61.1312 19.6476 60.8831 19.2267 60.5628 18.9315C60.2424 18.6362 59.8624 18.4886 59.4227 18.4886C58.9578 18.4886 58.5589 18.6362 58.226 18.9315C57.8931 19.2267 57.6387 19.6476 57.4628 20.1941C57.2869 20.7343 57.199 21.3844 57.199 22.1445C57.199 22.8983 57.2869 23.5484 57.4628 24.0949C57.6387 24.6414 57.8931 25.0623 58.226 25.3575C58.5589 25.6528 58.9578 25.8004 59.4227 25.8004ZM74.1969 21.24V29.3809H68.9958V14.9081H73.9331V17.6595H74.0838C74.3979 16.7423 74.9507 16.0231 75.7422 15.5017C76.5399 14.9804 77.4696 14.7197 78.5312 14.7197C79.5551 14.7197 80.4439 14.9552 81.1977 15.4264C81.9578 15.8912 82.5451 16.5319 82.9597 17.3485C83.3805 18.1651 83.5878 19.0979 83.5816 20.147V29.3809H78.3804V21.24C78.3867 20.5239 78.2045 19.9617 77.8339 19.5533C77.4696 19.145 76.9608 18.9409 76.3075 18.9409C75.8804 18.9409 75.5066 19.0351 75.1862 19.2236C74.8722 19.4057 74.6303 19.6696 74.4607 20.015C74.2911 20.3542 74.2032 20.7626 74.1969 21.24ZM90.1819 29.607C89.2585 29.607 88.4419 29.4562 87.7321 29.1547C87.0286 28.8469 86.4758 28.3821 86.0738 27.7602C85.6717 27.1383 85.4707 26.3469 85.4707 25.3858C85.4707 24.5943 85.6058 23.919 85.8759 23.36C86.146 22.7946 86.5229 22.3329 87.0066 21.9749C87.4903 21.6168 88.0525 21.3436 88.6932 21.1551C89.3402 20.9667 90.0374 20.8442 90.7849 20.7877C91.5953 20.7249 92.2454 20.6495 92.7354 20.5615C93.2316 20.4673 93.5897 20.3385 93.8095 20.1752C94.0294 20.0056 94.1393 19.7826 94.1393 19.5062V19.4685C94.1393 19.0917 93.9948 18.8027 93.7059 18.6017C93.4169 18.4007 93.0463 18.3002 92.594 18.3002C92.0978 18.3002 91.6926 18.4101 91.3785 18.63C91.0707 18.8435 90.8854 19.1733 90.8226 19.6193H86.0361C86.0989 18.7399 86.3784 17.9296 86.8747 17.1883C87.3772 16.4408 88.109 15.8441 89.0701 15.3981C90.0311 14.9458 91.2309 14.7197 92.6694 14.7197C93.7059 14.7197 94.6355 14.8422 95.4584 15.0872C96.2813 15.3259 96.9817 15.6619 97.5596 16.0953C98.1375 16.5225 98.5772 17.025 98.8787 17.6029C99.1865 18.1745 99.3404 18.7964 99.3404 19.4685V29.3809H94.4785V27.3456H94.3654C94.0765 27.8858 93.7247 28.3224 93.3101 28.6553C92.9018 28.9883 92.4338 29.2301 91.9062 29.3809C91.3848 29.5316 90.8101 29.607 90.1819 29.607ZM91.8779 26.328C92.2737 26.328 92.6443 26.2464 92.9898 26.083C93.3415 25.9197 93.6273 25.6842 93.8472 25.3764C94.0671 25.0686 94.177 24.6948 94.177 24.2551V23.049C94.0388 23.1056 93.8912 23.159 93.7341 23.2092C93.5834 23.2595 93.4201 23.3066 93.2442 23.3506C93.0746 23.3945 92.8924 23.4354 92.6977 23.473C92.5092 23.5107 92.3114 23.5453 92.1041 23.5767C91.702 23.6395 91.3723 23.7432 91.1147 23.8876C90.8635 24.0258 90.675 24.1986 90.5494 24.4059C90.43 24.6069 90.3704 24.833 90.3704 25.0843C90.3704 25.4863 90.5117 25.7941 90.7944 26.0077C91.077 26.2212 91.4382 26.328 91.8779 26.328ZM110.456 14.9081V18.6771H100.921V14.9081H110.456ZM102.768 11.4407H107.969V24.7262C107.969 24.9272 108.003 25.0968 108.073 25.235C108.142 25.3669 108.248 25.4674 108.393 25.5365C108.537 25.5994 108.723 25.6308 108.949 25.6308C109.106 25.6308 109.288 25.6119 109.495 25.5742C109.709 25.5365 109.866 25.5051 109.966 25.48L110.72 29.1359C110.488 29.205 110.155 29.2898 109.721 29.3903C109.294 29.4908 108.786 29.5567 108.195 29.5882C107.002 29.651 106 29.5285 105.189 29.2207C104.379 28.9066 103.77 28.4135 103.361 27.7414C102.953 27.0692 102.755 26.2275 102.768 25.2162V11.4407ZM119.358 29.6447C117.813 29.6447 116.481 29.3495 115.363 28.759C114.251 28.1622 113.394 27.3079 112.791 26.1961C112.194 25.078 111.896 23.74 111.896 22.1822C111.896 20.6872 112.197 19.3806 112.8 18.2625C113.403 17.1444 114.254 16.2744 115.354 15.6525C116.453 15.0306 117.75 14.7197 119.245 14.7197C120.338 14.7197 121.327 14.8893 122.213 15.2285C123.099 15.5677 123.856 16.0608 124.484 16.7078C125.112 17.3485 125.596 18.1274 125.935 19.0445C126.274 19.9617 126.444 20.995 126.444 22.1445V23.3506H113.516V20.4862H121.657C121.651 20.0716 121.544 19.7072 121.337 19.3932C121.136 19.0728 120.863 18.8247 120.517 18.6488C120.178 18.4666 119.792 18.3756 119.358 18.3756C118.937 18.3756 118.551 18.4666 118.199 18.6488C117.847 18.8247 117.565 19.0697 117.351 19.3837C117.144 19.6978 117.034 20.0653 117.021 20.4862V23.5767C117.021 24.0415 117.119 24.4561 117.314 24.8204C117.508 25.1848 117.788 25.4706 118.152 25.6779C118.516 25.8852 118.956 25.9888 119.471 25.9888C119.829 25.9888 120.156 25.9386 120.451 25.8381C120.753 25.7376 121.01 25.5931 121.224 25.4046C121.437 25.2099 121.594 24.9775 121.695 24.7074H126.444C126.28 25.7124 125.894 26.5856 125.285 27.3268C124.676 28.0617 123.868 28.6334 122.863 29.0417C121.865 29.4437 120.696 29.6447 119.358 29.6447ZM128.34 26.3657V22.2953L136.104 10.0839H139.798V15.5112H137.687L133.504 22.1445V22.2953H144.961V26.3657H128.34ZM137.725 29.3809V25.122L137.838 23.3506V10.0839H142.737V29.3809H137.725ZM147.121 29.3809V10.0839H160.689V14.3051H152.36V17.6218H159.86V21.843H152.36V29.3809H147.121ZM171.169 23.049V14.9081H176.37V29.3809H171.433V26.6295H171.282C170.968 27.5529 170.419 28.2753 169.634 28.7967C168.848 29.3118 167.915 29.5693 166.835 29.5693C165.824 29.5693 164.938 29.3369 164.178 28.8721C163.424 28.4072 162.837 27.7665 162.416 26.9499C162.001 26.1333 161.791 25.1973 161.785 24.142V14.9081H166.986V23.049C166.992 23.7651 167.174 24.3273 167.532 24.7356C167.897 25.1439 168.405 25.3481 169.059 25.3481C169.492 25.3481 169.866 25.257 170.18 25.0748C170.5 24.8864 170.745 24.6226 170.915 24.2834C171.091 23.9379 171.176 23.5264 171.169 23.049ZM184.217 21.24V29.3809H179.016V14.9081H183.953V17.6595H184.104C184.418 16.7423 184.971 16.0231 185.762 15.5017C186.56 14.9804 187.49 14.7197 188.551 14.7197C189.575 14.7197 190.464 14.9552 191.218 15.4264C191.978 15.8912 192.565 16.5319 192.98 17.3485C193.401 18.1651 193.608 19.0979 193.602 20.147V29.3809H188.4V21.24C188.407 20.5239 188.225 19.9617 187.854 19.5533C187.49 19.145 186.981 18.9409 186.328 18.9409C185.9 18.9409 185.527 19.0351 185.206 19.2236C184.892 19.4057 184.65 19.6696 184.481 20.015C184.311 20.3542 184.223 20.7626 184.217 21.24Z" fill="url(#paint5_linear_1890_5487)"/>
<path d="M40.3023 29.3809H32.8775V10.0839H40.227C42.2119 10.0839 43.9268 10.4702 45.3716 11.2428C46.8226 12.0092 47.9407 13.1147 48.7259 14.5595C49.5174 15.998 49.9131 17.7223 49.9131 19.7324C49.9131 21.7425 49.5205 23.4699 48.7354 24.9147C47.9502 26.3531 46.8383 27.4587 45.3998 28.2313C43.9614 28.9977 42.2622 29.3809 40.3023 29.3809ZM38.1164 24.9335H40.1139C41.0687 24.9335 41.8822 24.7796 42.5543 24.4718C43.2327 24.164 43.7478 23.6332 44.0996 22.8794C44.4576 22.1257 44.6366 21.0766 44.6366 19.7324C44.6366 18.3881 44.4545 17.3391 44.0901 16.5853C43.7321 15.8315 43.2044 15.3007 42.5072 14.9929C41.8162 14.6851 40.9682 14.5312 39.9631 14.5312H38.1164V24.9335ZM59.385 29.6447C57.8146 29.6447 56.4703 29.3337 55.3522 28.7119C54.2341 28.0837 53.3766 27.2106 52.7799 26.0925C52.1831 24.9681 51.8848 23.6646 51.8848 22.1822C51.8848 20.6997 52.1831 19.3995 52.7799 18.2813C53.3766 17.1569 54.2341 16.2838 55.3522 15.6619C56.4703 15.0338 57.8146 14.7197 59.385 14.7197C60.9554 14.7197 62.2996 15.0338 63.4177 15.6619C64.5358 16.2838 65.3933 17.1569 65.99 18.2813C66.5868 19.3995 66.8852 20.6997 66.8852 22.1822C66.8852 23.6646 66.5868 24.9681 65.99 26.0925C65.3933 27.2106 64.5358 28.0837 63.4177 28.7119C62.2996 29.3337 60.9554 29.6447 59.385 29.6447ZM59.4227 25.8004C59.8624 25.8004 60.2424 25.6528 60.5628 25.3575C60.8831 25.0623 61.1312 24.6414 61.3071 24.0949C61.483 23.5484 61.5709 22.8983 61.5709 22.1445C61.5709 21.3844 61.483 20.7343 61.3071 20.1941C61.1312 19.6476 60.8831 19.2267 60.5628 18.9315C60.2424 18.6362 59.8624 18.4886 59.4227 18.4886C58.9578 18.4886 58.5589 18.6362 58.226 18.9315C57.8931 19.2267 57.6387 19.6476 57.4628 20.1941C57.2869 20.7343 57.199 21.3844 57.199 22.1445C57.199 22.8983 57.2869 23.5484 57.4628 24.0949C57.6387 24.6414 57.8931 25.0623 58.226 25.3575C58.5589 25.6528 58.9578 25.8004 59.4227 25.8004ZM74.1969 21.24V29.3809H68.9958V14.9081H73.9331V17.6595H74.0838C74.3979 16.7423 74.9507 16.0231 75.7422 15.5017C76.5399 14.9804 77.4696 14.7197 78.5312 14.7197C79.5551 14.7197 80.4439 14.9552 81.1977 15.4264C81.9578 15.8912 82.5451 16.5319 82.9597 17.3485C83.3805 18.1651 83.5878 19.0979 83.5816 20.147V29.3809H78.3804V21.24C78.3867 20.5239 78.2045 19.9617 77.8339 19.5533C77.4696 19.145 76.9608 18.9409 76.3075 18.9409C75.8804 18.9409 75.5066 19.0351 75.1862 19.2236C74.8722 19.4057 74.6303 19.6696 74.4607 20.015C74.2911 20.3542 74.2032 20.7626 74.1969 21.24ZM90.1819 29.607C89.2585 29.607 88.4419 29.4562 87.7321 29.1547C87.0286 28.8469 86.4758 28.3821 86.0738 27.7602C85.6717 27.1383 85.4707 26.3469 85.4707 25.3858C85.4707 24.5943 85.6058 23.919 85.8759 23.36C86.146 22.7946 86.5229 22.3329 87.0066 21.9749C87.4903 21.6168 88.0525 21.3436 88.6932 21.1551C89.3402 20.9667 90.0374 20.8442 90.7849 20.7877C91.5953 20.7249 92.2454 20.6495 92.7354 20.5615C93.2316 20.4673 93.5897 20.3385 93.8095 20.1752C94.0294 20.0056 94.1393 19.7826 94.1393 19.5062V19.4685C94.1393 19.0917 93.9948 18.8027 93.7059 18.6017C93.4169 18.4007 93.0463 18.3002 92.594 18.3002C92.0978 18.3002 91.6926 18.4101 91.3785 18.63C91.0707 18.8435 90.8854 19.1733 90.8226 19.6193H86.0361C86.0989 18.7399 86.3784 17.9296 86.8747 17.1883C87.3772 16.4408 88.109 15.8441 89.0701 15.3981C90.0311 14.9458 91.2309 14.7197 92.6694 14.7197C93.7059 14.7197 94.6355 14.8422 95.4584 15.0872C96.2813 15.3259 96.9817 15.6619 97.5596 16.0953C98.1375 16.5225 98.5772 17.025 98.8787 17.6029C99.1865 18.1745 99.3404 18.7964 99.3404 19.4685V29.3809H94.4785V27.3456H94.3654C94.0765 27.8858 93.7247 28.3224 93.3101 28.6553C92.9018 28.9883 92.4338 29.2301 91.9062 29.3809C91.3848 29.5316 90.8101 29.607 90.1819 29.607ZM91.8779 26.328C92.2737 26.328 92.6443 26.2464 92.9898 26.083C93.3415 25.9197 93.6273 25.6842 93.8472 25.3764C94.0671 25.0686 94.177 24.6948 94.177 24.2551V23.049C94.0388 23.1056 93.8912 23.159 93.7341 23.2092C93.5834 23.2595 93.4201 23.3066 93.2442 23.3506C93.0746 23.3945 92.8924 23.4354 92.6977 23.473C92.5092 23.5107 92.3114 23.5453 92.1041 23.5767C91.702 23.6395 91.3723 23.7432 91.1147 23.8876C90.8635 24.0258 90.675 24.1986 90.5494 24.4059C90.43 24.6069 90.3704 24.833 90.3704 25.0843C90.3704 25.4863 90.5117 25.7941 90.7944 26.0077C91.077 26.2212 91.4382 26.328 91.8779 26.328ZM110.456 14.9081V18.6771H100.921V14.9081H110.456ZM102.768 11.4407H107.969V24.7262C107.969 24.9272 108.003 25.0968 108.073 25.235C108.142 25.3669 108.248 25.4674 108.393 25.5365C108.537 25.5994 108.723 25.6308 108.949 25.6308C109.106 25.6308 109.288 25.6119 109.495 25.5742C109.709 25.5365 109.866 25.5051 109.966 25.48L110.72 29.1359C110.488 29.205 110.155 29.2898 109.721 29.3903C109.294 29.4908 108.786 29.5567 108.195 29.5882C107.002 29.651 106 29.5285 105.189 29.2207C104.379 28.9066 103.77 28.4135 103.361 27.7414C102.953 27.0692 102.755 26.2275 102.768 25.2162V11.4407ZM119.358 29.6447C117.813 29.6447 116.481 29.3495 115.363 28.759C114.251 28.1622 113.394 27.3079 112.791 26.1961C112.194 25.078 111.896 23.74 111.896 22.1822C111.896 20.6872 112.197 19.3806 112.8 18.2625C113.403 17.1444 114.254 16.2744 115.354 15.6525C116.453 15.0306 117.75 14.7197 119.245 14.7197C120.338 14.7197 121.327 14.8893 122.213 15.2285C123.099 15.5677 123.856 16.0608 124.484 16.7078C125.112 17.3485 125.596 18.1274 125.935 19.0445C126.274 19.9617 126.444 20.995 126.444 22.1445V23.3506H113.516V20.4862H121.657C121.651 20.0716 121.544 19.7072 121.337 19.3932C121.136 19.0728 120.863 18.8247 120.517 18.6488C120.178 18.4666 119.792 18.3756 119.358 18.3756C118.937 18.3756 118.551 18.4666 118.199 18.6488C117.847 18.8247 117.565 19.0697 117.351 19.3837C117.144 19.6978 117.034 20.0653 117.021 20.4862V23.5767C117.021 24.0415 117.119 24.4561 117.314 24.8204C117.508 25.1848 117.788 25.4706 118.152 25.6779C118.516 25.8852 118.956 25.9888 119.471 25.9888C119.829 25.9888 120.156 25.9386 120.451 25.8381C120.753 25.7376 121.01 25.5931 121.224 25.4046C121.437 25.2099 121.594 24.9775 121.695 24.7074H126.444C126.28 25.7124 125.894 26.5856 125.285 27.3268C124.676 28.0617 123.868 28.6334 122.863 29.0417C121.865 29.4437 120.696 29.6447 119.358 29.6447ZM128.34 26.3657V22.2953L136.104 10.0839H139.798V15.5112H137.687L133.504 22.1445V22.2953H144.961V26.3657H128.34ZM137.725 29.3809V25.122L137.838 23.3506V10.0839H142.737V29.3809H137.725ZM147.121 29.3809V10.0839H160.689V14.3051H152.36V17.6218H159.86V21.843H152.36V29.3809H147.121ZM171.169 23.049V14.9081H176.37V29.3809H171.433V26.6295H171.282C170.968 27.5529 170.419 28.2753 169.634 28.7967C168.848 29.3118 167.915 29.5693 166.835 29.5693C165.824 29.5693 164.938 29.3369 164.178 28.8721C163.424 28.4072 162.837 27.7665 162.416 26.9499C162.001 26.1333 161.791 25.1973 161.785 24.142V14.9081H166.986V23.049C166.992 23.7651 167.174 24.3273 167.532 24.7356C167.897 25.1439 168.405 25.3481 169.059 25.3481C169.492 25.3481 169.866 25.257 170.18 25.0748C170.5 24.8864 170.745 24.6226 170.915 24.2834C171.091 23.9379 171.176 23.5264 171.169 23.049ZM184.217 21.24V29.3809H179.016V14.9081H183.953V17.6595H184.104C184.418 16.7423 184.971 16.0231 185.762 15.5017C186.56 14.9804 187.49 14.7197 188.551 14.7197C189.575 14.7197 190.464 14.9552 191.218 15.4264C191.978 15.8912 192.565 16.5319 192.98 17.3485C193.401 18.1651 193.608 19.0979 193.602 20.147V29.3809H188.4V21.24C188.407 20.5239 188.225 19.9617 187.854 19.5533C187.49 19.145 186.981 18.9409 186.328 18.9409C185.9 18.9409 185.527 19.0351 185.206 19.2236C184.892 19.4057 184.65 19.6696 184.481 20.015C184.311 20.3542 184.223 20.7626 184.217 21.24Z" fill="url(#paint6_linear_1890_5487)"/>
<path d="M32.8775 29.3809H29.5609V32.6975H32.8775V29.3809ZM32.8775 10.0839V6.76722H29.5609V10.0839H32.8775ZM45.3716 11.2428L43.8075 14.1675L43.8151 14.1716L43.8227 14.1756L45.3716 11.2428ZM48.7259 14.5595L45.8118 16.1433L45.8159 16.1508L45.8201 16.1584L48.7259 14.5595ZM48.7354 24.9147L51.6466 26.5038L51.6495 26.4984L48.7354 24.9147ZM45.3998 28.2313L46.9593 31.1585L46.9692 31.1532L45.3998 28.2313ZM38.1164 24.9335H34.7997V28.2502H38.1164V24.9335ZM42.5543 24.4718L41.1839 21.4515L41.1734 21.4563L42.5543 24.4718ZM44.0996 22.8794L41.1037 21.4564L41.0988 21.4666L41.094 21.4769L44.0996 22.8794ZM44.0901 16.5853L41.0943 18.0083L41.0991 18.0185L41.104 18.0286L44.0901 16.5853ZM42.5072 14.9929L41.1576 18.0226L41.1678 18.0271L42.5072 14.9929ZM38.1164 14.5312V11.2146H34.7997V14.5312H38.1164ZM40.3024 26.0642H32.8775V32.6975H40.3024V26.0642ZM36.1942 29.3809V10.0839H29.5609V29.3809H36.1942ZM32.8775 13.4006H40.227V6.76722H32.8775V13.4006ZM40.227 13.4006C41.7808 13.4006 42.9356 13.7013 43.8075 14.1675L46.9357 8.31813C44.918 7.23911 42.6431 6.76722 40.227 6.76722V13.4006ZM43.8227 14.1756C44.6944 14.636 45.3381 15.2716 45.8118 16.1433L51.64 12.9758C50.5434 10.9579 48.9509 9.38238 46.9205 8.31007L43.8227 14.1756ZM45.8201 16.1584C46.2879 17.0086 46.5965 18.1571 46.5965 19.7324H53.2298C53.2298 17.2874 52.7469 14.9873 51.6318 12.9607L45.8201 16.1584ZM46.5965 19.7324C46.5965 21.3111 46.2896 22.4691 45.8212 23.3309L51.6495 26.4984C52.7515 24.4707 53.2298 22.1739 53.2298 19.7324H46.5965ZM45.8242 23.3256C45.3462 24.2012 44.6996 24.8426 43.8305 25.3095L46.9692 31.1532C48.9771 30.0748 50.5541 28.5051 51.6466 26.5037L45.8242 23.3256ZM43.8404 25.3042C42.97 25.7678 41.8277 26.0642 40.3024 26.0642V32.6975C42.6967 32.6975 44.9527 32.2275 46.9593 31.1585L43.8404 25.3042ZM38.1164 28.2502H40.1139V21.6168H38.1164V28.2502ZM40.1139 28.2502C41.4118 28.2502 42.7229 28.0425 43.9352 27.4873L41.1734 21.4563C41.0414 21.5167 40.7256 21.6168 40.1139 21.6168V28.2502ZM43.9246 27.4922C45.4086 26.8189 46.4604 25.6635 47.1051 24.282L41.094 21.4769C41.0742 21.5194 41.0603 21.5412 41.0559 21.5477C41.0517 21.5539 41.0555 21.5472 41.0692 21.5331C41.0832 21.5187 41.1024 21.5018 41.1257 21.4854C41.149 21.469 41.1696 21.458 41.184 21.4515L43.9246 27.4922ZM47.0954 24.3025C47.7552 22.9136 47.9533 21.3022 47.9533 19.7324H41.32C41.32 20.851 41.1601 21.3377 41.1037 21.4564L47.0954 24.3025ZM47.9533 19.7324C47.9533 18.1574 47.7509 16.5377 47.0763 15.142L41.104 18.0286C41.158 18.1405 41.32 18.6189 41.32 19.7324H47.9533ZM47.086 15.1623C46.4216 13.7636 45.3423 12.619 43.8466 11.9588L41.1678 18.0271C41.1602 18.0238 41.1446 18.016 41.1247 18.0023C41.1047 17.9887 41.0872 17.9737 41.0737 17.9601C41.0604 17.9468 41.0561 17.9398 41.0593 17.9444C41.0627 17.9494 41.0755 17.9689 41.0943 18.0083L47.086 15.1623ZM43.8568 11.9633C42.6259 11.415 41.288 11.2146 39.9631 11.2146V17.8479C40.6484 17.8479 41.0066 17.9553 41.1576 18.0226L43.8568 11.9633ZM39.9631 11.2146H38.1164V17.8479H39.9631V11.2146ZM34.7997 14.5312V24.9335H41.433V14.5312H34.7997ZM55.3522 28.7119L53.7277 31.6035L53.7339 31.6069L53.7401 31.6104L55.3522 28.7119ZM52.7799 26.0925L49.8503 27.6473L49.8539 27.6541L52.7799 26.0925ZM52.7799 18.2813L55.7059 19.843L55.7095 19.8362L52.7799 18.2813ZM55.3522 15.6619L56.9643 18.5604L56.9705 18.557L56.9767 18.5535L55.3522 15.6619ZM63.4177 15.6619L61.7932 18.5535L61.7994 18.557L61.8056 18.5604L63.4177 15.6619ZM65.99 18.2813L63.0604 19.8362L63.064 19.843L65.99 18.2813ZM65.99 26.0925L68.916 27.6541L68.9197 27.6473L65.99 26.0925ZM63.4177 28.7119L65.0298 31.6104L65.036 31.6069L65.0422 31.6035L63.4177 28.7119ZM60.5628 25.3575L62.8104 27.7964L62.8104 27.7964L60.5628 25.3575ZM61.3071 24.0949L64.4643 25.111V25.111L61.3071 24.0949ZM61.3071 20.1941L58.1499 21.2102L58.1534 21.2209L61.3071 20.1941ZM60.5628 18.9315L62.8104 16.4925L62.8104 16.4925L60.5628 18.9315ZM57.4628 20.1941L60.6165 21.2209L60.62 21.2102L57.4628 20.1941ZM57.4628 24.0949L60.62 23.0788L57.4628 24.0949ZM59.385 26.328C58.2516 26.328 57.4891 26.1052 56.9643 25.8134L53.7401 31.6104C55.4516 32.5623 57.3775 32.9614 59.385 32.9614V26.328ZM56.9767 25.8203C56.4035 25.4982 56.0009 25.0835 55.7059 24.5308L49.8539 27.6541C50.7524 29.3377 52.0647 30.6692 53.7277 31.6035L56.9767 25.8203ZM55.7095 24.5376C55.4058 23.9654 55.2014 23.212 55.2014 22.1822H48.5681C48.5681 24.1172 48.9605 25.9708 49.8503 27.6473L55.7095 24.5376ZM55.2014 22.1822C55.2014 21.1518 55.406 20.4049 55.7059 19.843L49.8539 16.7197C48.9603 18.394 48.5681 20.2477 48.5681 22.1822H55.2014ZM55.7095 19.8362C56.0044 19.2805 56.4028 18.8727 56.9643 18.5604L53.7401 12.7634C52.0653 13.6949 50.7489 15.0333 49.8503 16.7265L55.7095 19.8362ZM56.9767 18.5535C57.4988 18.2602 58.2568 18.0364 59.385 18.0364V11.403C57.3723 11.403 55.4418 11.8074 53.7277 12.7703L56.9767 18.5535ZM59.385 18.0364C60.5131 18.0364 61.2711 18.2602 61.7932 18.5535L65.0422 12.7703C63.3281 11.8074 61.3976 11.403 59.385 11.403V18.0364ZM61.8056 18.5604C62.3671 18.8727 62.7655 19.2805 63.0604 19.8362L68.9197 16.7265C68.0211 15.0333 66.7046 13.6949 65.0298 12.7634L61.8056 18.5604ZM63.064 19.843C63.3639 20.4049 63.5685 21.1518 63.5685 22.1822H70.2018C70.2018 20.2477 69.8096 18.394 68.916 16.7197L63.064 19.843ZM63.5685 22.1822C63.5685 23.212 63.3641 23.9654 63.0604 24.5376L68.9197 27.6473C69.8094 25.9708 70.2018 24.1172 70.2018 22.1822H63.5685ZM63.064 24.5308C62.769 25.0835 62.3665 25.4982 61.7932 25.8203L65.0422 31.6035C66.7052 30.6692 68.0175 29.3377 68.916 27.6541L63.064 24.5308ZM61.8056 25.8134C61.2809 26.1052 60.5183 26.328 59.385 26.328V32.9614C61.3924 32.9614 63.3183 32.5623 65.0298 31.6104L61.8056 25.8134ZM59.4227 29.117C60.6866 29.117 61.8713 28.6619 62.8104 27.7964L58.3151 22.9186C58.4389 22.8045 58.614 22.6845 58.8366 22.598C59.0586 22.5118 59.2642 22.4837 59.4227 22.4837V29.117ZM62.8104 27.7964C63.6646 27.0092 64.1671 26.0345 64.4643 25.111L58.1499 23.0788C58.0954 23.2483 58.1016 23.1153 58.3151 22.9186L62.8104 27.7964ZM64.4643 25.111C64.773 24.1518 64.8876 23.1417 64.8876 22.1445H58.2543C58.2543 22.6548 58.193 22.945 58.1499 23.0788L64.4643 25.111ZM64.8876 22.1445C64.8876 21.1458 64.7742 20.1296 64.4608 19.1673L58.1534 21.2209C58.1918 21.3389 58.2543 21.6231 58.2543 22.1445H64.8876ZM64.4643 19.178C64.1671 18.2544 63.6646 17.2798 62.8104 16.4925L58.3151 21.3704C58.1016 21.1737 58.0954 21.0407 58.1499 21.2102L64.4643 19.178ZM62.8104 16.4925C61.8713 15.6271 60.6866 15.172 59.4227 15.172V21.8053C59.2642 21.8053 59.0586 21.7772 58.8366 21.691C58.614 21.6045 58.4389 21.4844 58.3151 21.3704L62.8104 16.4925ZM59.4227 15.172C58.1865 15.172 56.9941 15.591 56.0254 16.45L60.4266 21.413C60.2997 21.5255 60.13 21.6343 59.926 21.7098C59.7242 21.7845 59.5466 21.8053 59.4227 21.8053V15.172ZM56.0254 16.45C55.1369 17.2379 54.6117 18.2269 54.3056 19.178L60.62 21.2102C60.6657 21.0682 60.6492 21.2155 60.4266 21.413L56.0254 16.45ZM54.3091 19.1673C53.9958 20.1296 53.8823 21.1458 53.8823 22.1445H60.5156C60.5156 21.6231 60.5781 21.3389 60.6165 21.2209L54.3091 19.1673ZM53.8823 22.1445C53.8823 23.1417 53.9969 24.1518 54.3056 25.111L60.62 23.0788C60.5769 22.945 60.5156 22.6548 60.5156 22.1445H53.8823ZM54.3056 25.111C54.6117 26.0621 55.1369 27.0511 56.0254 27.839L60.4266 22.876C60.6492 23.0735 60.6657 23.2208 60.62 23.0788L54.3056 25.111ZM56.0254 27.839C56.9941 28.698 58.1865 29.117 59.4227 29.117V22.4837C59.5466 22.4837 59.7242 22.5045 59.926 22.5792C60.13 22.6547 60.2997 22.7635 60.4266 22.876L56.0254 27.839ZM74.1969 21.24L70.8805 21.1963L70.8802 21.2181V21.24H74.1969ZM74.1969 29.3809V32.6975H77.5136V29.3809H74.1969ZM68.9958 29.3809H65.6791V32.6975H68.9958V29.3809ZM68.9958 14.9081V11.5915H65.6791V14.9081H68.9958ZM73.9331 14.9081H77.2497V11.5915H73.9331V14.9081ZM73.9331 17.6595H70.6164V20.9761H73.9331V17.6595ZM74.0838 17.6595V20.9761H76.4538L77.2216 18.734L74.0838 17.6595ZM75.7422 15.5017L73.9277 12.7254L73.9176 12.732L75.7422 15.5017ZM81.1977 15.4264L79.4399 18.2389L79.4535 18.2474L79.4673 18.2558L81.1977 15.4264ZM82.9597 17.3485L80.0023 18.8499L80.0069 18.859L80.0115 18.868L82.9597 17.3485ZM83.5816 20.147L80.2649 20.1271L80.2649 20.137V20.147H83.5816ZM83.5816 29.3809V32.6975H86.8982V29.3809H83.5816ZM78.3804 29.3809H75.0637V32.6975H78.3804V29.3809ZM78.3804 21.24L75.0639 21.2109L75.0637 21.2254V21.24H78.3804ZM77.8339 19.5534L75.3592 21.7615L75.3686 21.7721L75.3781 21.7825L77.8339 19.5534ZM75.1862 19.2236L76.8503 22.0926L76.8591 22.0875L76.8679 22.0823L75.1862 19.2236ZM74.4607 20.015L77.4272 21.4983L77.4326 21.4875L77.438 21.4766L74.4607 20.015ZM70.8802 21.24V29.3809H77.5136V21.24H70.8802ZM74.1969 26.0642H68.9958V32.6975H74.1969V26.0642ZM72.3124 29.3809V14.9081H65.6791V29.3809H72.3124ZM68.9958 18.2248H73.9331V11.5915H68.9958V18.2248ZM70.6164 14.9081V17.6595H77.2497V14.9081H70.6164ZM73.9331 20.9761H74.0838V14.3428H73.9331V20.9761ZM77.2216 18.734C77.3036 18.4947 77.4035 18.3789 77.5667 18.2715L73.9176 12.732C72.4978 13.6673 71.4922 14.99 70.9461 16.5849L77.2216 18.734ZM77.5566 18.2781C77.7546 18.1487 78.038 18.0364 78.5312 18.0364V11.403C76.9012 11.403 75.3252 11.8121 73.9277 12.7254L77.5566 18.2781ZM78.5312 18.0364C79.0298 18.0364 79.2894 18.1448 79.4399 18.2389L82.9555 12.6138C81.5985 11.7657 80.0803 11.403 78.5312 11.403V18.0364ZM79.4673 18.2558C79.6881 18.3909 79.8577 18.565 80.0023 18.8499L85.917 15.8471C85.2325 14.4988 84.2275 13.3915 82.9281 12.5969L79.4673 18.2558ZM80.0115 18.868C80.1543 19.145 80.2685 19.5368 80.2649 20.1271L86.8982 20.1668C86.9072 18.6591 86.6068 17.1852 85.9078 15.8291L80.0115 18.868ZM80.2649 20.147V29.3809H86.8982V20.147H80.2649ZM83.5816 26.0642H78.3804V32.6975H83.5816V26.0642ZM81.6971 29.3809V21.24H75.0637V29.3809H81.6971ZM81.697 21.269C81.7083 19.9755 81.3726 18.5171 80.2898 17.3242L75.3781 21.7825C75.2251 21.614 75.1366 21.4372 75.0933 21.3036C75.054 21.182 75.0645 21.1367 75.0639 21.2109L81.697 21.269ZM80.3086 17.3452C79.1931 16.095 77.7059 15.6242 76.3075 15.6242V22.2576C76.2904 22.2576 76.1498 22.2547 75.944 22.1721C75.7246 22.0841 75.5183 21.9398 75.3592 21.7615L80.3086 17.3452ZM76.3075 15.6242C75.3787 15.6242 74.4068 15.8341 73.5046 16.3648L76.8679 22.0823C76.6064 22.2361 76.382 22.2576 76.3075 22.2576V15.6242ZM73.5222 16.3545C72.6061 16.8859 71.9238 17.6565 71.4835 18.5535L77.438 21.4766C77.3939 21.5665 77.3225 21.6811 77.2142 21.7992C77.1048 21.9185 76.9795 22.0176 76.8503 22.0926L73.5222 16.3545ZM71.4942 18.5318C71.0507 19.4188 70.8917 20.3447 70.8805 21.1963L77.5133 21.2836C77.5146 21.1804 77.5315 21.2897 77.4272 21.4983L71.4942 18.5318ZM87.7321 29.1547L86.4027 32.1933L86.419 32.2004L86.4354 32.2074L87.7321 29.1547ZM86.0738 27.7602L83.2884 29.5608V29.5608L86.0738 27.7602ZM85.8759 23.36L88.8623 24.8028L88.8654 24.7963L88.8685 24.7898L85.8759 23.36ZM87.0066 21.9749L88.9799 24.6406V24.6406L87.0066 21.9749ZM88.6932 21.1551L87.7657 17.9708L87.7573 17.9733L88.6932 21.1551ZM90.7849 20.7877L91.0351 24.0949L91.0413 24.0944L90.7849 20.7877ZM92.7354 20.5615L93.3213 23.826L93.3377 23.8231L93.3541 23.82L92.7354 20.5615ZM93.8095 20.1752L95.7873 22.8377L95.8115 22.8197L95.8353 22.8013L93.8095 20.1752ZM93.7059 18.6017L91.8118 21.3244L93.7059 18.6017ZM91.3785 18.63L93.2693 21.3549L93.2805 21.3471L91.3785 18.63ZM90.8226 19.6193V22.936H93.7049L94.1069 20.0819L90.8226 19.6193ZM86.0361 19.6193L82.7278 19.383L82.474 22.936H86.0361V19.6193ZM86.8747 17.1883L84.1222 15.3379L84.1186 15.3432L86.8747 17.1883ZM89.0701 15.3981L90.4662 18.4066L90.4742 18.4029L90.4823 18.3991L89.0701 15.3981ZM95.4584 15.0872L94.5121 18.2659L94.5232 18.2693L94.5344 18.2725L95.4584 15.0872ZM97.5596 16.0953L95.5696 18.7487L95.5789 18.7556L95.5882 18.7625L97.5596 16.0953ZM98.8787 17.6029L95.9382 19.1371L95.9482 19.1563L95.9585 19.1754L98.8787 17.6029ZM99.3404 29.3809V32.6975H102.657V29.3809H99.3404ZM94.4785 29.3809H91.1618V32.6975H94.4785V29.3809ZM94.4785 27.3456H97.7952V24.029H94.4785V27.3456ZM94.3654 27.3456V24.029H92.3781L91.4408 25.7813L94.3654 27.3456ZM93.3101 28.6553L91.2334 26.0693L91.2238 26.077L91.2142 26.0849L93.3101 28.6553ZM91.9062 29.3809L90.995 26.1918L90.9849 26.1947L91.9062 29.3809ZM92.9898 26.083L91.5931 23.0748L91.5827 23.0796L91.5723 23.0845L92.9898 26.083ZM93.8472 25.3764L91.1483 23.4486V23.4486L93.8472 25.3764ZM94.177 23.049H97.4936V18.1088L92.9212 19.9793L94.177 23.049ZM93.7341 23.2092L92.7233 20.0503L92.7043 20.0564L92.6853 20.0628L93.7341 23.2092ZM93.2442 23.3506L92.4398 20.1329L92.4258 20.1364L92.4118 20.14L93.2442 23.3506ZM92.6977 23.473L92.0674 20.2168L92.0573 20.2188L92.0472 20.2208L92.6977 23.473ZM92.1041 23.5767L91.6072 20.2975L91.5996 20.2986L91.592 20.2998L92.1041 23.5767ZM91.1147 23.8876L92.7131 26.7937L92.7253 26.787L92.7374 26.7802L91.1147 23.8876ZM90.5494 24.4059L87.713 22.6868L87.7052 22.6997L87.6975 22.7126L90.5494 24.4059ZM90.7944 26.0077L92.7938 23.3614H92.7938L90.7944 26.0077ZM90.1819 26.2903C89.6179 26.2903 89.256 26.1985 89.0288 26.102L86.4354 32.2074C87.6278 32.7139 88.8991 32.9237 90.1819 32.9237V26.2903ZM89.0615 26.1161C88.9309 26.059 88.8942 26.0139 88.8591 25.9596L83.2884 29.5608C84.0574 30.7503 85.1263 31.6349 86.4027 32.1933L89.0615 26.1161ZM88.8591 25.9596C88.8934 26.0126 88.7874 25.8957 88.7874 25.3858H82.1541C82.1541 26.7981 82.4501 28.264 83.2884 29.5608L88.8591 25.9596ZM88.7874 25.3858C88.7874 24.961 88.8608 24.8059 88.8623 24.8028L82.8895 21.9171C82.3508 23.0322 82.1541 24.2276 82.1541 25.3858H88.7874ZM88.8685 24.7898C88.9149 24.6927 88.9501 24.6627 88.9799 24.6406L85.0332 19.3091C84.0957 20.0032 83.3771 20.8966 82.8833 21.9302L88.8685 24.7898ZM88.9799 24.6406C89.1183 24.5382 89.3209 24.4277 89.629 24.337L87.7573 17.9733C86.784 18.2595 85.8622 18.6955 85.0332 19.3092L88.9799 24.6406ZM89.6207 24.3395C90.0237 24.2221 90.4917 24.136 91.0351 24.0949L90.5348 17.4805C89.5831 17.5524 88.6567 17.7113 87.7657 17.9708L89.6207 24.3395ZM91.0413 24.0944C91.9025 24.0277 92.676 23.9419 93.3213 23.826L92.1494 17.297C91.8148 17.3571 91.288 17.4221 90.5286 17.4809L91.0413 24.0944ZM93.3541 23.82C93.9946 23.6984 94.9544 23.4564 95.7873 22.8377L91.8317 17.5128C91.9529 17.4227 92.0556 17.3651 92.1226 17.3312C92.1903 17.297 92.2369 17.2794 92.2536 17.2733C92.2818 17.2632 92.2453 17.2787 92.1167 17.3031L93.3541 23.82ZM95.8353 22.8013C96.8648 22.0072 97.456 20.8163 97.456 19.5062H90.8226C90.8226 19.1933 90.888 18.8078 91.082 18.4143C91.2758 18.0213 91.5402 17.737 91.7837 17.5491L95.8353 22.8013ZM97.456 19.5062V19.4685H90.8226V19.5062H97.456ZM97.456 19.4685C97.456 18.0965 96.852 16.75 95.5999 15.879L91.8118 21.3244C91.5426 21.1371 91.2622 20.848 91.0644 20.4524C90.8709 20.0654 90.8226 19.7093 90.8226 19.4685H97.456ZM95.5999 15.879C94.6156 15.1943 93.5311 14.9835 92.594 14.9835V21.6168C92.5615 21.6168 92.2182 21.607 91.8118 21.3244L95.5999 15.879ZM92.594 14.9835C91.6167 14.9835 90.4918 15.2022 89.4766 15.9128L93.2805 21.3471C92.8935 21.618 92.5789 21.6168 92.594 21.6168V14.9835ZM89.4878 15.905C88.2688 16.7509 87.7019 17.9959 87.5384 19.1567L94.1069 20.0819C94.0915 20.1912 94.0441 20.4061 93.9002 20.6622C93.7493 20.9307 93.5321 21.1726 93.2693 21.3549L89.4878 15.905ZM90.8226 16.3026H86.0361V22.936H90.8226V16.3026ZM89.3443 19.8556C89.3655 19.5584 89.4513 19.3014 89.6307 19.0335L84.1186 15.3432C83.3055 16.5577 82.8322 17.9214 82.7278 19.383L89.3443 19.8556ZM89.6272 19.0388C89.7362 18.8765 89.9565 18.6431 90.4662 18.4066L87.674 12.3896C86.2615 13.0451 85.0182 14.0051 84.1222 15.3379L89.6272 19.0388ZM90.4823 18.3991C90.8741 18.2147 91.5554 18.0364 92.6694 18.0364V11.403C90.9065 11.403 89.1882 11.677 87.6578 12.3971L90.4823 18.3991ZM92.6694 18.0364C93.4494 18.0364 94.0521 18.129 94.5121 18.2659L96.4048 11.9084C95.2189 11.5553 93.9623 11.403 92.6694 11.403V18.0364ZM94.5344 18.2725C95.0427 18.42 95.3655 18.5956 95.5696 18.7487L99.5496 13.442C98.5979 12.7282 97.5199 12.2318 96.3824 11.9018L94.5344 18.2725ZM95.5882 18.7625C95.8033 18.9215 95.8926 19.0497 95.9382 19.1371L101.819 16.0687C101.262 15.0004 100.472 14.1235 99.531 13.4282L95.5882 18.7625ZM95.9585 19.1754C95.9967 19.2463 96.0238 19.3252 96.0238 19.4685H102.657C102.657 18.2677 102.376 17.1028 101.799 16.0305L95.9585 19.1754ZM96.0238 19.4685V29.3809H102.657V19.4685H96.0238ZM99.3404 26.0642H94.4785V32.6975H99.3404V26.0642ZM97.7952 29.3809V27.3456H91.1618V29.3809H97.7952ZM94.4785 24.029H94.3654V30.6623H94.4785V24.029ZM91.4408 25.7813C91.3309 25.9868 91.2504 26.0557 91.2334 26.0693L95.3868 31.2414C96.199 30.5891 96.822 29.7849 97.29 28.9099L91.4408 25.7813ZM91.2142 26.0849C91.1693 26.1215 91.1083 26.1595 90.995 26.1918L92.8174 32.5699C93.7594 32.3008 94.6344 31.855 95.4061 31.2258L91.2142 26.0849ZM90.9849 26.1947C90.8057 26.2465 90.5462 26.2903 90.1819 26.2903V32.9237C91.0739 32.9237 91.9639 32.8167 92.8275 32.567L90.9849 26.1947ZM91.8779 29.6447C92.7459 29.6447 93.6026 29.4619 94.4072 29.0815L91.5723 23.0845C91.6228 23.0606 91.6797 23.0409 91.739 23.0278C91.7979 23.0148 91.846 23.0114 91.8779 23.0114V29.6447ZM94.3864 29.0913C95.2446 28.6928 95.9842 28.0908 96.5461 27.3041L91.1483 23.4486C91.2029 23.3722 91.2735 23.2945 91.3585 23.2245C91.4432 23.1547 91.5253 23.1062 91.5931 23.0748L94.3864 29.0913ZM96.5461 27.3041C97.2303 26.3463 97.4936 25.2701 97.4936 24.2551H90.8603C90.8603 24.1982 90.8676 24.0826 90.9126 23.9293C90.959 23.7717 91.0365 23.6051 91.1483 23.4486L96.5461 27.3041ZM97.4936 24.2551V23.049H90.8603V24.2551H97.4936ZM92.9212 19.9793C92.8712 19.9997 92.806 20.0239 92.7233 20.0503L94.745 26.3681C94.9764 26.294 95.2063 26.2114 95.4328 26.1188L92.9212 19.9793ZM92.6853 20.0628C92.6253 20.0827 92.5445 20.1067 92.4398 20.1329L94.0486 26.5682C94.2956 26.5064 94.5414 26.4362 94.7829 26.3557L92.6853 20.0628ZM92.4118 20.14C92.3171 20.1646 92.203 20.1906 92.0674 20.2168L93.3279 26.7293C93.5818 26.6801 93.832 26.6245 94.0765 26.5611L92.4118 20.14ZM92.0472 20.2208C91.9141 20.2474 91.7677 20.2731 91.6072 20.2975L92.6009 26.8559C92.855 26.8174 93.1044 26.7741 93.3481 26.7253L92.0472 20.2208ZM91.592 20.2998C90.9369 20.4021 90.1971 20.5995 89.492 20.995L92.7374 26.7802C92.6363 26.837 92.567 26.8602 92.5496 26.8656C92.532 26.8711 92.5507 26.8638 92.6161 26.8536L91.592 20.2998ZM89.5164 20.9815C88.8492 21.3484 88.1911 21.898 87.713 22.6868L93.3858 26.1249C93.1589 26.4992 92.8777 26.7032 92.7131 26.7937L89.5164 20.9815ZM87.6975 22.7126C87.2512 23.4643 87.0537 24.2833 87.0537 25.0843H93.687C93.687 25.3827 93.6089 25.7494 93.4012 26.0991L87.6975 22.7126ZM87.0537 25.0843C87.0537 26.3661 87.5628 27.7229 88.795 28.6539L92.7938 23.3614C93.0689 23.5693 93.3217 23.8652 93.4904 24.2326C93.6529 24.5865 93.687 24.8957 93.687 25.0843H87.0537ZM88.795 28.6539C89.7804 29.3984 90.8938 29.6447 91.8779 29.6447V23.0114C91.9827 23.0114 92.3737 23.044 92.7938 23.3614L88.795 28.6539ZM110.456 14.9081H113.773V11.5915H110.456V14.9081ZM110.456 18.6771V21.9937H113.773V18.6771H110.456ZM100.921 18.6771H97.6044V21.9937H100.921V18.6771ZM100.921 14.9081V11.5915H97.6044V14.9081H100.921ZM102.768 11.4407V8.12404H99.4511V11.4407H102.768ZM107.969 11.4407H111.286V8.12404H107.969V11.4407ZM108.073 25.235L105.106 26.7183L105.12 26.7463L105.135 26.774L108.073 25.235ZM108.393 25.5365L106.962 28.5286L107.016 28.5544L107.071 28.5782L108.393 25.5365ZM109.495 25.5742L108.919 22.308L108.911 22.3095L108.902 22.3111L109.495 25.5742ZM109.966 25.48L113.215 24.8102L112.517 21.4237L109.162 22.2624L109.966 25.48ZM110.72 29.1359L111.665 32.315L114.583 31.4475L113.969 28.4661L110.72 29.1359ZM109.721 29.3903L108.972 26.1593L108.962 26.1618L109.721 29.3903ZM108.195 29.5882L108.369 32.9002L108.371 32.9001L108.195 29.5882ZM105.189 29.2207L103.991 32.3132L104.001 32.3172L104.012 32.3212L105.189 29.2207ZM103.361 27.7414L100.527 29.4633L103.361 27.7414ZM102.768 25.2162L106.084 25.2574L106.084 25.2368V25.2162H102.768ZM107.14 14.9081V18.6771H113.773V14.9081H107.14ZM110.456 15.3604H100.921V21.9937H110.456V15.3604ZM104.238 18.6771V14.9081H97.6044V18.6771H104.238ZM100.921 18.2248H110.456V11.5915H100.921V18.2248ZM102.768 14.7574H107.969V8.12404H102.768V14.7574ZM104.652 11.4407V24.7262H111.286V11.4407H104.652ZM104.652 24.7262C104.652 25.2927 104.748 26.0023 105.106 26.7183L111.039 23.7518C111.259 24.1913 111.286 24.5617 111.286 24.7262H104.652ZM105.135 26.774C105.562 27.5893 106.223 28.1753 106.962 28.5286L109.824 22.5445C110.274 22.7596 110.722 23.1446 111.011 23.6961L105.135 26.774ZM107.071 28.5782C107.772 28.8833 108.451 28.9474 108.949 28.9474V22.3141C108.985 22.3141 109.072 22.3164 109.195 22.3372C109.317 22.358 109.5 22.4012 109.715 22.4949L107.071 28.5782ZM108.949 28.9474C109.359 28.9474 109.747 28.8995 110.089 28.8374L108.902 22.3111C108.87 22.3169 108.857 22.3181 108.862 22.3176C108.866 22.3171 108.897 22.3141 108.949 22.3141V28.9474ZM110.072 28.8404C110.298 28.8005 110.551 28.7526 110.771 28.6976L109.162 22.2624C109.182 22.2573 109.174 22.2599 109.123 22.2701C109.076 22.2796 109.009 22.2921 108.919 22.308L110.072 28.8404ZM106.718 26.1498L107.472 29.8056L113.969 28.4661L113.215 24.8102L106.718 26.1498ZM109.775 25.9567C109.64 25.9969 109.384 26.0638 108.972 26.1593L110.471 32.6212C110.925 32.5158 111.336 32.4131 111.665 32.315L109.775 25.9567ZM108.962 26.1618C108.779 26.2048 108.476 26.2519 108.019 26.2762L108.371 32.9001C109.095 32.8616 109.81 32.7768 110.481 32.6188L108.962 26.1618ZM108.021 26.2761C107.124 26.3233 106.616 26.2146 106.367 26.1202L104.012 32.3212C105.384 32.8423 106.879 32.9787 108.369 32.9002L108.021 26.2761ZM106.388 26.1282C106.269 26.0821 106.221 26.0451 106.211 26.0371C106.204 26.0316 106.203 26.0302 106.196 26.0194L100.527 29.4633C101.355 30.8261 102.575 31.7643 103.991 32.3132L106.388 26.1282ZM106.196 26.0194C106.191 26.0104 106.077 25.8227 106.084 25.2574L99.4514 25.175C99.4333 26.6323 99.7157 28.1281 100.527 29.4633L106.196 26.0194ZM106.084 25.2162V11.4407H99.4511V25.2162H106.084ZM115.363 28.759L113.795 31.6813L113.804 31.6866L113.814 31.6918L115.363 28.759ZM112.791 26.1961L109.865 27.7577L109.87 27.7676L109.875 27.7774L112.791 26.1961ZM112.8 18.2625L115.719 19.8369V19.8369L112.8 18.2625ZM115.354 15.6525L116.987 18.5393L115.354 15.6525ZM122.213 15.2285L123.399 12.1312V12.1312L122.213 15.2285ZM124.484 16.7078L122.104 19.0181L122.11 19.0239L122.116 19.0297L124.484 16.7078ZM125.935 19.0445L122.824 20.1951V20.1951L125.935 19.0445ZM126.444 23.3506V26.6672H129.76V23.3506H126.444ZM113.516 23.3506H110.2V26.6672H113.516V23.3506ZM113.516 20.4862V17.1695H110.2V20.4862H113.516ZM121.657 20.4862V23.8028H125.025L124.974 20.4359L121.657 20.4862ZM121.337 19.3932L118.527 21.1559L118.548 21.1883L118.569 21.2201L121.337 19.3932ZM120.517 18.6488L118.948 21.5708L118.98 21.588L119.012 21.6045L120.517 18.6488ZM118.199 18.6488L119.683 21.6153L119.704 21.6048L119.724 21.594L118.199 18.6488ZM117.351 19.3837L114.609 17.5187L114.596 17.5377L114.583 17.5568L117.351 19.3837ZM117.021 20.4862L113.706 20.3872L113.705 20.4367V20.4862H117.021ZM117.314 24.8204L114.388 26.3838V26.3838L117.314 24.8204ZM118.152 25.6779L116.512 28.5606V28.5606L118.152 25.6779ZM120.451 25.8381L119.402 22.6916L119.392 22.6949L119.382 22.6983L120.451 25.8381ZM121.224 25.4046L123.418 27.8916L123.438 27.8737L123.458 27.8555L121.224 25.4046ZM121.695 24.7074V21.3907H119.39L118.587 23.5507L121.695 24.7074ZM126.444 24.7074L129.718 25.2394L130.343 21.3907H126.444V24.7074ZM125.285 27.3268L127.838 29.4436L127.847 29.4329L125.285 27.3268ZM122.863 29.0417L124.102 32.1184L124.112 32.1144L122.863 29.0417ZM119.358 26.328C118.234 26.328 117.458 26.1145 116.912 25.8262L113.814 31.6918C115.505 32.5844 117.392 32.9614 119.358 32.9614V26.328ZM116.932 25.8366C116.391 25.5467 116.002 25.1592 115.706 24.6148L109.875 27.7774C110.786 29.4566 112.111 30.7778 113.795 31.6813L116.932 25.8366ZM115.717 24.6345C115.429 24.095 115.212 23.3185 115.212 22.1822H108.579C108.579 24.1615 108.959 26.061 109.865 27.7577L115.717 24.6345ZM115.212 22.1822C115.212 21.1395 115.42 20.3923 115.719 19.8369L109.881 16.6881C108.975 18.3689 108.579 20.2349 108.579 22.1822H115.212ZM115.719 19.8369C116.028 19.2652 116.435 18.8516 116.987 18.5393L113.721 12.7657C112.074 13.6971 110.779 15.0235 109.881 16.6881L115.719 19.8369ZM116.987 18.5393C117.503 18.2469 118.217 18.0364 119.245 18.0364V11.403C117.283 11.403 115.402 11.8143 113.721 12.7657L116.987 18.5393ZM119.245 18.0364C119.994 18.0364 120.573 18.1519 121.027 18.3258L123.399 12.1312C122.082 11.6267 120.683 11.403 119.245 11.403V18.0364ZM121.027 18.3258C121.486 18.5017 121.829 18.7349 122.104 19.0181L126.864 14.3975C125.882 13.3867 124.712 12.6337 123.399 12.1312L121.027 18.3258ZM122.116 19.0297C122.388 19.3076 122.633 19.6766 122.824 20.1951L129.046 17.894C128.559 16.5783 127.836 15.3894 126.852 14.3859L122.116 19.0297ZM122.824 20.1951C123.006 20.6855 123.127 21.3201 123.127 22.1445H129.76C129.76 20.6698 129.543 19.2378 129.046 17.894L122.824 20.1951ZM123.127 22.1445V23.3506H129.76V22.1445H123.127ZM126.444 20.0339H113.516V26.6672H126.444V20.0339ZM116.833 23.3506V20.4862H110.2V23.3506H116.833ZM113.516 23.8028H121.657V17.1695H113.516V23.8028ZM124.974 20.4359C124.959 19.4557 124.696 18.4612 124.105 17.5662L118.569 21.2201C118.489 21.099 118.428 20.9669 118.39 20.8349C118.352 20.7051 118.342 20.6007 118.341 20.5364L124.974 20.4359ZM124.146 17.6304C123.618 16.7885 122.888 16.1341 122.022 15.6931L119.012 21.6045C118.936 21.5654 118.844 21.5062 118.752 21.4222C118.659 21.3379 118.584 21.2456 118.527 21.1559L124.146 17.6304ZM122.086 15.7268C121.207 15.2544 120.269 15.0589 119.358 15.0589V21.6922C119.342 21.6922 119.29 21.6904 119.212 21.672C119.132 21.6532 119.041 21.6207 118.948 21.5708L122.086 15.7268ZM119.358 15.0589C118.441 15.0589 117.527 15.2622 116.674 15.7036L119.724 21.594C119.658 21.6285 119.586 21.6551 119.514 21.672C119.443 21.6887 119.389 21.6922 119.358 21.6922V15.0589ZM116.716 15.6823C115.876 16.1023 115.153 16.7189 114.609 17.5187L120.094 21.2487C120.042 21.3256 119.975 21.4022 119.896 21.4708C119.817 21.539 119.742 21.5856 119.683 21.6153L116.716 15.6823ZM114.583 17.5568C113.997 18.4443 113.735 19.426 113.706 20.3872L120.337 20.5851C120.335 20.6355 120.326 20.727 120.291 20.8455C120.255 20.9662 120.198 21.092 120.119 21.2107L114.583 17.5568ZM113.705 20.4862V23.5767H120.338V20.4862H113.705ZM113.705 23.5767C113.705 24.5177 113.906 25.4809 114.388 26.3838L120.239 23.257C120.281 23.3367 120.308 23.4135 120.323 23.478C120.338 23.5407 120.338 23.5769 120.338 23.5767H113.705ZM114.388 26.3838C114.883 27.309 115.612 28.0485 116.512 28.5606L119.792 22.7952C119.866 22.837 119.954 22.9004 120.04 22.989C120.127 23.0779 120.193 23.1717 120.239 23.257L114.388 26.3838ZM116.512 28.5606C117.479 29.1106 118.512 29.3055 119.471 29.3055V22.6721C119.401 22.6721 119.554 22.6598 119.792 22.7952L116.512 28.5606ZM119.471 29.3055C120.14 29.3055 120.834 29.2114 121.52 28.9778L119.382 22.6983C119.478 22.6658 119.519 22.6721 119.471 22.6721V29.3055ZM121.5 28.9845C122.175 28.7596 122.834 28.4068 123.418 27.8916L119.029 22.9177C119.186 22.7793 119.331 22.7155 119.402 22.6916L121.5 28.9845ZM123.458 27.8555C124.061 27.3061 124.518 26.6304 124.803 25.864L118.587 23.5507C118.671 23.3246 118.814 23.1137 118.989 22.9538L123.458 27.8555ZM121.695 28.024H126.444V21.3907H121.695V28.024ZM123.17 24.1754C123.095 24.6388 122.937 24.96 122.723 25.2206L127.847 29.4329C128.851 28.2111 129.466 26.786 129.718 25.2394L123.17 24.1754ZM122.732 25.21C122.517 25.4689 122.183 25.7382 121.615 25.9689L124.112 32.1144C125.554 31.5285 126.834 30.6546 127.838 29.4436L122.732 25.21ZM121.625 25.9649C121.103 26.1751 120.371 26.328 119.358 26.328V32.9614C121.021 32.9614 122.626 32.7122 124.102 32.1184L121.625 25.9649ZM128.34 26.3657H125.023V29.6824H128.34V26.3657ZM128.34 22.2953L125.541 20.5157L125.023 21.3302V22.2953H128.34ZM136.104 10.0839V6.76722H134.283L133.305 8.30437L136.104 10.0839ZM139.798 10.0839H143.114V6.76722H139.798V10.0839ZM139.798 15.5112V18.8278H143.114V15.5112H139.798ZM137.687 15.5112V12.1945H135.858L134.882 13.7419L137.687 15.5112ZM133.504 22.1445L130.698 20.3752L130.187 21.186V22.1445H133.504ZM133.504 22.2953H130.187V25.6119H133.504V22.2953ZM144.961 22.2953H148.278V18.9786H144.961V22.2953ZM144.961 26.3657V29.6824H148.278V26.3657H144.961ZM137.725 29.3809H134.408V32.6975H137.725V29.3809ZM137.725 25.122L134.415 24.9107L134.408 25.0162V25.122H137.725ZM137.838 23.3506L141.148 23.5618L141.154 23.4563V23.3506H137.838ZM137.838 10.0839V6.76722H134.521V10.0839H137.838ZM142.737 10.0839H146.054V6.76722H142.737V10.0839ZM142.737 29.3809V32.6975H146.054V29.3809H142.737ZM131.657 26.3657V22.2953H125.023V26.3657H131.657ZM131.139 24.0748L138.903 11.8634L133.305 8.30437L125.541 20.5157L131.139 24.0748ZM136.104 13.4006H139.798V6.76722H136.104V13.4006ZM136.481 10.0839V15.5112H143.114V10.0839H136.481ZM139.798 12.1945H137.687V18.8278H139.798V12.1945ZM134.882 13.7419L130.698 20.3752L136.309 23.9138L140.492 17.2804L134.882 13.7419ZM130.187 22.1445V22.2953H136.82V22.1445H130.187ZM133.504 25.6119H144.961V18.9786H133.504V25.6119ZM141.644 22.2953V26.3657H148.278V22.2953H141.644ZM144.961 23.049H128.34V29.6824H144.961V23.049ZM141.041 29.3809V25.122H134.408V29.3809H141.041ZM141.035 25.3332L141.148 23.5618L134.528 23.1393L134.415 24.9107L141.035 25.3332ZM141.154 23.3506V10.0839H134.521V23.3506H141.154ZM137.838 13.4006H142.737V6.76722H137.838V13.4006ZM139.421 10.0839V29.3809H146.054V10.0839H139.421ZM142.737 26.0642H137.725V32.6975H142.737V26.0642ZM147.121 29.3809H143.804V32.6975H147.121V29.3809ZM147.121 10.0839V6.76722H143.804V10.0839H147.121ZM160.689 10.0839H164.006V6.76722H160.689V10.0839ZM160.689 14.3051V17.6218H164.006V14.3051H160.689ZM152.36 14.3051V10.9884H149.043V14.3051H152.36ZM152.36 17.6218H149.043V20.9384H152.36V17.6218ZM159.86 17.6218H163.177V14.3051H159.86V17.6218ZM159.86 21.843V25.1596H163.177V21.843H159.86ZM152.36 21.843V18.5263H149.043V21.843H152.36ZM152.36 29.3809V32.6975H155.677V29.3809H152.36ZM150.438 29.3809V10.0839H143.804V29.3809H150.438ZM147.121 13.4006H160.689V6.76722H147.121V13.4006ZM157.373 10.0839V14.3051H164.006V10.0839H157.373ZM160.689 10.9884H152.36V17.6218H160.689V10.9884ZM149.043 14.3051V17.6218H155.677V14.3051H149.043ZM152.36 20.9384H159.86V14.3051H152.36V20.9384ZM156.544 17.6218V21.843H163.177V17.6218H156.544ZM159.86 18.5263H152.36V25.1596H159.86V18.5263ZM149.043 21.843V29.3809H155.677V21.843H149.043ZM152.36 26.0642H147.121V32.6975H152.36V26.0642ZM171.169 23.049H167.853V23.0709L167.853 23.0927L171.169 23.049ZM171.169 14.9081V11.5915H167.853V14.9081H171.169ZM176.37 14.9081H179.687V11.5915H176.37V14.9081ZM176.37 29.3809V32.6975H179.687V29.3809H176.37ZM171.433 29.3809H168.117V32.6975H171.433V29.3809ZM171.433 26.6295H174.75V23.3129H171.433V26.6295ZM171.282 26.6295V23.3129H168.907L168.142 25.5615L171.282 26.6295ZM169.633 28.7967L171.453 31.5699L171.46 31.5648L171.468 31.5597L169.633 28.7967ZM164.178 28.8721L162.437 31.6951L162.448 31.7015L164.178 28.8721ZM162.416 26.9499L159.459 28.4513L159.463 28.4603L159.468 28.4693L162.416 26.9499ZM161.785 24.142H158.468V24.1519L158.468 24.1618L161.785 24.142ZM161.785 14.9081V11.5915H158.468V14.9081H161.785ZM166.986 14.9081H170.302V11.5915H166.986V14.9081ZM166.986 23.049H163.669V23.0636L163.669 23.0781L166.986 23.049ZM167.532 24.7356L165.039 26.9224L165.048 26.9332L165.058 26.9438L167.532 24.7356ZM170.18 25.0748L171.844 27.9439L171.853 27.9388L171.862 27.9336L170.18 25.0748ZM170.915 24.2834L167.959 22.7787L167.954 22.7894L167.948 22.8001L170.915 24.2834ZM174.486 23.049V14.9081H167.853V23.049H174.486ZM171.169 18.2248H176.37V11.5915H171.169V18.2248ZM173.054 14.9081V29.3809H179.687V14.9081H173.054ZM176.37 26.0642H171.433V32.6975H176.37V26.0642ZM174.75 29.3809V26.6295H168.117V29.3809H174.75ZM171.433 23.3129H171.282V29.9462H171.433V23.3129ZM168.142 25.5615C168.055 25.8172 167.951 25.9325 167.799 26.0336L171.468 31.5597C172.886 30.6181 173.881 29.2886 174.422 27.6976L168.142 25.5615ZM167.814 26.0235C167.647 26.1329 167.369 26.2526 166.835 26.2526V32.886C168.462 32.886 170.049 32.4906 171.453 31.5699L167.814 26.0235ZM166.835 26.2526C166.35 26.2526 166.08 26.1475 165.908 26.0426L162.448 31.7015C163.796 32.5263 165.298 32.886 166.835 32.886V26.2526ZM165.919 26.049C165.698 25.913 165.519 25.7318 165.364 25.4305L159.468 28.4693C160.154 29.8012 161.15 30.9014 162.437 31.6951L165.919 26.049ZM165.373 25.4485C165.225 25.1565 165.105 24.7411 165.101 24.1223L158.468 24.1618C158.477 25.6535 158.778 27.1101 159.459 28.4513L165.373 25.4485ZM165.101 24.142V14.9081H158.468V24.142H165.101ZM161.785 18.2248H166.986V11.5915H161.785V18.2248ZM163.669 14.9081V23.049H170.302V14.9081H163.669ZM163.669 23.0781C163.68 24.3318 164.009 25.7483 165.039 26.9224L170.026 22.5489C170.17 22.7128 170.247 22.8756 170.282 22.9854C170.315 23.0848 170.303 23.1095 170.302 23.0199L163.669 23.0781ZM165.058 26.9438C166.173 28.194 167.66 28.6648 169.059 28.6648V22.0314C169.076 22.0314 169.216 22.0343 169.422 22.1168C169.642 22.2049 169.848 22.3492 170.007 22.5274L165.058 26.9438ZM169.059 28.6648C169.963 28.6648 170.934 28.4714 171.844 27.9439L168.516 22.2058C168.797 22.0426 169.021 22.0314 169.059 22.0314V28.6648ZM171.862 27.9336C172.746 27.4134 173.432 26.6664 173.881 25.7666L167.948 22.8001C167.997 22.7028 168.07 22.59 168.174 22.4788C168.277 22.3672 168.39 22.2798 168.498 22.2161L171.862 27.9336ZM173.871 25.7881C174.341 24.8648 174.497 23.8979 174.486 23.0054L167.853 23.0927C167.854 23.155 167.841 23.011 167.959 22.7787L173.871 25.7881ZM184.217 21.24L180.901 21.1963L180.9 21.2181V21.24H184.217ZM184.217 29.3809V32.6975H187.534V29.3809H184.217ZM179.016 29.3809H175.699V32.6975H179.016V29.3809ZM179.016 14.9081V11.5915H175.699V14.9081H179.016ZM183.953 14.9081H187.27V11.5915H183.953V14.9081ZM183.953 17.6595H180.636V20.9761H183.953V17.6595ZM184.104 17.6595V20.9761H186.474L187.242 18.734L184.104 17.6595ZM185.762 15.5017L183.948 12.7254L183.938 12.732L185.762 15.5017ZM191.218 15.4264L189.46 18.2389L189.474 18.2474L189.487 18.2558L191.218 15.4264ZM192.98 17.3485L190.022 18.8499L190.027 18.859L190.032 18.868L192.98 17.3485ZM193.602 20.147L190.285 20.1271L190.285 20.137V20.147H193.602ZM193.602 29.3809V32.6975H196.918V29.3809H193.602ZM188.4 29.3809H185.084V32.6975H188.4V29.3809ZM188.4 21.24L185.084 21.2109L185.084 21.2254V21.24H188.4ZM187.854 19.5534L185.379 21.7615L185.389 21.7721L185.398 21.7825L187.854 19.5534ZM185.206 19.2236L186.87 22.0926L186.879 22.0875L186.888 22.0823L185.206 19.2236ZM184.481 20.015L187.447 21.4983L187.453 21.4875L187.458 21.4766L184.481 20.015ZM180.9 21.24V29.3809H187.534V21.24H180.9ZM184.217 26.0642H179.016V32.6975H184.217V26.0642ZM182.332 29.3809V14.9081H175.699V29.3809H182.332ZM179.016 18.2248H183.953V11.5915H179.016V18.2248ZM180.636 14.9081V17.6595H187.27V14.9081H180.636ZM183.953 20.9761H184.104V14.3428H183.953V20.9761ZM187.242 18.734C187.324 18.4947 187.424 18.3789 187.587 18.2715L183.938 12.732C182.518 13.6673 181.512 14.99 180.966 16.5849L187.242 18.734ZM187.577 18.2781C187.775 18.1487 188.058 18.0364 188.551 18.0364V11.403C186.921 11.403 185.345 11.8121 183.948 12.7254L187.577 18.2781ZM188.551 18.0364C189.05 18.0364 189.309 18.1448 189.46 18.2389L192.976 12.6138C191.618 11.7657 190.1 11.403 188.551 11.403V18.0364ZM189.487 18.2558C189.708 18.3909 189.878 18.565 190.022 18.8499L195.937 15.8471C195.253 14.4988 194.247 13.3915 192.948 12.5969L189.487 18.2558ZM190.032 18.868C190.174 19.145 190.289 19.5368 190.285 20.1271L196.918 20.1668C196.927 18.6591 196.627 17.1852 195.928 15.8291L190.032 18.868ZM190.285 20.147V29.3809H196.918V20.147H190.285ZM193.602 26.0642H188.4V32.6975H193.602V26.0642ZM191.717 29.3809V21.24H185.084V29.3809H191.717ZM191.717 21.269C191.728 19.9755 191.393 18.5171 190.31 17.3242L185.398 21.7825C185.245 21.614 185.157 21.4372 185.113 21.3036C185.074 21.182 185.085 21.1367 185.084 21.2109L191.717 21.269ZM190.329 17.3452C189.213 16.095 187.726 15.6242 186.328 15.6242V22.2576C186.31 22.2576 186.17 22.2547 185.964 22.1721C185.745 22.0841 185.538 21.9398 185.379 21.7615L190.329 17.3452ZM186.328 15.6242C185.399 15.6242 184.427 15.8341 183.525 16.3648L186.888 22.0823C186.626 22.2361 186.402 22.2576 186.328 22.2576V15.6242ZM183.542 16.3545C182.626 16.8859 181.944 17.6565 181.503 18.5535L187.458 21.4766C187.414 21.5665 187.343 21.6811 187.234 21.7992C187.125 21.9185 187 22.0176 186.87 22.0926L183.542 16.3545ZM181.514 18.5318C181.071 19.4188 180.912 20.3447 180.901 21.1963L187.533 21.2836C187.535 21.1804 187.552 21.2897 187.447 21.4983L181.514 18.5318Z" fill="#2E6CFF"/>
<defs>
<linearGradient id="paint0_linear_1890_5487" x1="12.5003" y1="0" x2="12.5003" y2="35.1818" gradientUnits="userSpaceOnUse">
<stop stop-color="#FFC700"/>
<stop offset="1" stop-color="#FFD600"/>
</linearGradient>
<linearGradient id="paint1_linear_1890_5487" x1="1.66699" y1="17.5909" x2="22.917" y2="17.5909" gradientUnits="userSpaceOnUse">
<stop stop-color="#F9F03E"/>
<stop offset="1" stop-color="#9DEDA2"/>
</linearGradient>
<linearGradient id="paint2_linear_1890_5487" x1="6.66699" y1="24.5456" x2="22.917" y2="24.5456" gradientUnits="userSpaceOnUse">
<stop stop-color="#F9F03E"/>
<stop offset="1" stop-color="#9DEDA2"/>
</linearGradient>
<linearGradient id="paint3_linear_1890_5487" x1="1.66699" y1="21.2728" x2="10.0003" y2="21.2728" gradientUnits="userSpaceOnUse">
<stop stop-color="#F9F03E"/>
<stop offset="1" stop-color="#9DEDA2"/>
</linearGradient>
<linearGradient id="paint4_linear_1890_5487" x1="15.2935" y1="14.2824" x2="18.724" y2="0.0945586" gradientUnits="userSpaceOnUse">
<stop stop-color="#F9F03E"/>
<stop offset="1" stop-color="#9DEDA2"/>
</linearGradient>
<linearGradient id="paint5_linear_1890_5487" x1="198.634" y1="19.2722" x2="181.362" y2="-31.5811" gradientUnits="userSpaceOnUse">
<stop stop-color="#FF7A00"/>
<stop offset="1" stop-color="#FFA800"/>
</linearGradient>
<linearGradient id="paint6_linear_1890_5487" x1="31.6338" y1="19.6905" x2="198.634" y2="19.6905" gradientUnits="userSpaceOnUse">
<stop stop-color="#F9F03E"/>
<stop offset="1" stop-color="#9DEDA2"/>
</linearGradient>
</defs>
</svg>
