<svg width="56" height="56" viewBox="0 0 56 56" fill="none" xmlns="http://www.w3.org/2000/svg">
<circle cx="28" cy="28" r="28" fill="white"/>
<path fill-rule="evenodd" clip-rule="evenodd" d="M17.6499 26.6099C24.0923 23.7874 28.3883 21.9267 30.5378 21.0277C36.675 18.4608 37.9503 18.0149 38.7815 18.0002C38.9643 17.9969 39.3731 18.0425 39.6379 18.2585C39.8614 18.4409 39.9229 18.6874 39.9524 18.8603C39.9818 19.0333 40.0185 19.4273 39.9893 19.7351C39.6568 23.249 38.2177 31.7762 37.4856 35.7118C37.1758 37.3771 36.5658 37.9354 35.9753 37.9901C34.6919 38.1088 33.7174 37.1372 32.4744 36.3179C30.5294 35.0358 29.4305 34.2377 27.5425 32.9867C25.3606 31.5408 26.7751 30.7462 28.0185 29.4475C28.344 29.1076 33.9985 23.9358 34.1079 23.4667C34.1216 23.408 34.1343 23.1893 34.0051 23.0738C33.8759 22.9583 33.6851 22.9978 33.5475 23.0292C33.3524 23.0737 30.2452 25.1389 24.2258 29.2247C23.3439 29.8337 22.545 30.1304 21.8292 30.1149C21.0402 30.0977 19.5223 29.6663 18.394 29.2974C17.01 28.8451 15.91 28.6059 16.0058 27.8376C16.0557 27.4374 16.6037 27.0282 17.6499 26.6099Z" fill="#2E6CFF"/>
</svg>
