<svg width="24" height="24" viewBox="0 0 24 24" fill="none" xmlns="http://www.w3.org/2000/svg">
<path d="M7.54752 19.5012C16.6042 19.5012 21.5578 11.9979 21.5578 5.49101C21.5578 5.27789 21.5578 5.06573 21.5434 4.85453C22.507 4.15748 23.3389 3.29441 24 2.30573C23.1014 2.70413 22.148 2.96528 21.1718 3.08045C22.1998 2.46514 22.9692 1.49723 23.3366 0.356928C22.3701 0.930536 21.3126 1.33475 20.2099 1.55213C19.4675 0.762706 18.4856 0.23997 17.4162 0.0648128C16.3468 -0.110344 15.2494 0.071843 14.294 0.583181C13.3385 1.09452 12.5782 1.9065 12.1307 2.89348C11.6833 3.88045 11.5735 4.98739 11.8186 6.04301C9.8609 5.94481 7.94576 5.43604 6.19745 4.54973C4.44915 3.66343 2.90676 2.41939 1.6704 0.898368C1.04073 1.98236 0.847872 3.2656 1.1311 4.48679C1.41433 5.70798 2.15234 6.77532 3.19488 7.47149C2.41123 7.44853 1.64465 7.23712 0.96 6.85517V6.91757C0.960311 8.05442 1.35385 9.15616 2.07387 10.0359C2.79389 10.9157 3.79606 11.5193 4.9104 11.7444C4.18548 11.9422 3.42487 11.9711 2.68704 11.8289C3.00181 12.8073 3.61443 13.6628 4.43924 14.2759C5.26405 14.889 6.25983 15.229 7.28736 15.2485C6.26644 16.0509 5.09731 16.6442 3.84687 16.9944C2.59643 17.3447 1.28921 17.4449 0 17.2894C2.25183 18.7344 4.87192 19.5009 7.54752 19.4974" fill="#1DA1F2"/>
</svg>
