<svg width="25" height="17.5" viewBox="0 0 25 17.5" fill="none" xmlns="http://www.w3.org/2000/svg">
<path d="M24.4851 2.73887C24.1968 1.66803 23.3525 0.82372 22.2816 0.535418C20.3253 0 12.4999 0 12.4999 0C12.4999 0 4.67461 0 2.71828 0.514825C1.66803 0.803127 0.803127 1.66803 0.514825 2.73887C0 4.6952 0 8.75202 0 8.75202C0 8.75202 0 12.8294 0.514825 14.7652C0.803127 15.836 1.64744 16.6803 2.71828 16.9686C4.6952 17.504 12.4999 17.504 12.4999 17.504C12.4999 17.504 20.3253 17.504 22.2816 16.9892C23.3525 16.7009 24.1968 15.8566 24.4851 14.7858C24.9999 12.8294 24.9999 8.77262 24.9999 8.77262C24.9999 8.77262 25.0205 4.6952 24.4851 2.73887V2.73887Z" fill="#FF0000"/>
<path d="M10.0082 5.00409V12.4999L16.5156 8.75201L10.0082 5.00409Z" fill="white"/>
</svg>
