<svg width="40" height="40" viewBox="0 0 40 40" fill="none" xmlns="http://www.w3.org/2000/svg">
<path d="M18.7168 31H10V8H18.6283C20.9587 8 22.972 8.46045 24.6681 9.38135C26.3717 10.2948 27.6844 11.6125 28.6062 13.3345C29.5354 15.049 30 17.1042 30 19.5C30 21.8958 29.5391 23.9548 28.6173 25.6768C27.6954 27.3913 26.3901 28.709 24.7013 29.6299C23.0125 30.5433 21.0177 31 18.7168 31ZM16.1504 25.6992H18.4956C19.6165 25.6992 20.5715 25.5158 21.3606 25.1489C22.1571 24.7821 22.7618 24.1494 23.1748 23.251C23.5951 22.3525 23.8053 21.1022 23.8053 19.5C23.8053 17.8978 23.5914 16.6475 23.1637 15.749C22.7434 14.8506 22.1239 14.2179 21.3053 13.8511C20.4941 13.4842 19.4985 13.3008 18.3186 13.3008H16.1504V25.6992Z" fill="url(#paint0_linear_559_753)"/>
<path d="M18.7168 31H10V8H18.6283C20.9587 8 22.972 8.46045 24.6681 9.38135C26.3717 10.2948 27.6844 11.6125 28.6062 13.3345C29.5354 15.049 30 17.1042 30 19.5C30 21.8958 29.5391 23.9548 28.6173 25.6768C27.6954 27.3913 26.3901 28.709 24.7013 29.6299C23.0125 30.5433 21.0177 31 18.7168 31ZM16.1504 25.6992H18.4956C19.6165 25.6992 20.5715 25.5158 21.3606 25.1489C22.1571 24.7821 22.7618 24.1494 23.1748 23.251C23.5951 22.3525 23.8053 21.1022 23.8053 19.5C23.8053 17.8978 23.5914 16.6475 23.1637 15.749C22.7434 14.8506 22.1239 14.2179 21.3053 13.8511C20.4941 13.4842 19.4985 13.3008 18.3186 13.3008H16.1504V25.6992Z" fill="url(#paint1_linear_559_753)"/>
<path fill-rule="evenodd" clip-rule="evenodd" d="M6 35V4H18.6178C21.4726 4 24.1605 4.56275 26.5452 5.84933C28.9399 7.12963 30.819 9.00839 32.1146 11.4135C33.4302 13.8342 34 16.5808 34 19.5C34 22.4188 33.4341 25.1648 32.1305 27.5889L32.127 27.5953C30.8347 29.9879 28.9691 31.8644 26.5938 33.1537L26.5821 33.1601C24.2083 34.4381 21.5394 35 18.707 35H6ZM28.672 13.3158C27.7431 11.5885 26.4204 10.2668 24.7038 9.35065C22.9947 8.42696 20.966 7.96512 18.6178 7.96512H9.92357V31.0349H18.707C21.0255 31.0349 23.0356 30.5768 24.7373 29.6606C26.439 28.7369 27.7542 27.4152 28.6831 25.6955C29.612 23.9683 30.0764 21.9031 30.0764 19.5C30.0764 17.0969 29.6083 15.0355 28.672 13.3158ZM21.371 25.1661C22.1736 24.7981 22.7829 24.1635 23.199 23.2624C23.6226 22.3612 23.8344 21.1071 23.8344 19.5C23.8344 17.8929 23.6189 16.6388 23.1879 15.7376C22.7643 14.8365 22.1401 14.2019 21.3153 13.8339C20.9325 13.6616 20.5089 13.5296 20.0446 13.438C19.5175 13.334 18.9379 13.282 18.3057 13.282H16.121V25.718H18.4841C19.0456 25.718 19.5657 25.6726 20.0446 25.5816C20.529 25.4896 20.9712 25.3511 21.371 25.1661Z" fill="#2E6CFF"/>
<defs>
<linearGradient id="paint0_linear_559_753" x1="35.7965" y1="19.1406" x2="12.4082" y2="9.62875" gradientUnits="userSpaceOnUse">
<stop stop-color="#FF7A00"/>
<stop offset="1" stop-color="#FFA800"/>
</linearGradient>
<linearGradient id="paint1_linear_559_753" x1="8.53982" y1="19.6348" x2="35.7965" y2="19.6348" gradientUnits="userSpaceOnUse">
<stop stop-color="#F9F03E"/>
<stop offset="1" stop-color="#9DEDA2"/>
</linearGradient>
</defs>
</svg>
