<svg width="56" height="56" viewBox="0 0 56 56" fill="none" xmlns="http://www.w3.org/2000/svg">
<circle cx="28" cy="28" r="28" fill="white"/>
<path d="M36.317 20.4921C34.7873 19.8015 33.147 19.2926 31.4319 19.0012C31.4007 18.9956 31.3695 19.0097 31.3534 19.0378C31.1424 19.407 30.9087 19.8886 30.7451 20.2672C28.9004 19.9955 27.0652 19.9955 25.2583 20.2672C25.0946 19.8802 24.8525 19.407 24.6406 19.0378C24.6245 19.0106 24.5933 18.9965 24.562 19.0012C22.8479 19.2917 21.2076 19.8005 19.6769 20.4921C19.6637 20.4977 19.6523 20.5071 19.6448 20.5193C16.5334 25.0931 15.681 29.5545 16.0992 33.9606C16.1011 33.9822 16.1134 34.0028 16.1304 34.0159C18.1832 35.4993 20.1717 36.3998 22.1233 36.9967C22.1545 37.0061 22.1876 36.9949 22.2075 36.9695C22.6691 36.3492 23.0806 35.6952 23.4335 35.0073C23.4543 34.967 23.4344 34.9192 23.3919 34.9033C22.7391 34.6597 22.1176 34.3626 21.5197 34.0253C21.4724 33.9981 21.4687 33.9316 21.5122 33.8997C21.638 33.8069 21.7638 33.7104 21.884 33.613C21.9057 33.5952 21.936 33.5914 21.9615 33.6026C25.8893 35.3672 30.1415 35.3672 34.023 33.6026C34.0485 33.5905 34.0788 33.5942 34.1015 33.612C34.2216 33.7095 34.3475 33.8069 34.4742 33.8997C34.5177 33.9316 34.5149 33.9981 34.4676 34.0253C33.8697 34.3692 33.2482 34.6597 32.5945 34.9024C32.552 34.9183 32.533 34.967 32.5538 35.0073C32.9143 35.6942 33.3258 36.3483 33.7789 36.9686C33.7978 36.9949 33.8319 37.0061 33.8631 36.9967C35.8241 36.3998 37.8126 35.4993 39.8654 34.0159C39.8834 34.0028 39.8948 33.9831 39.8967 33.9616C40.3971 28.8676 39.0585 24.4428 36.3482 20.5202C36.3416 20.5071 36.3303 20.4977 36.317 20.4921ZM24.02 31.2778C22.8375 31.2778 21.8631 30.2095 21.8631 28.8976C21.8631 27.5857 22.8186 26.5175 24.02 26.5175C25.2309 26.5175 26.1958 27.5951 26.1769 28.8976C26.1769 30.2095 25.2214 31.2778 24.02 31.2778ZM31.9947 31.2778C30.8123 31.2778 29.8379 30.2095 29.8379 28.8976C29.8379 27.5857 30.7933 26.5175 31.9947 26.5175C33.2056 26.5175 34.1705 27.5951 34.1516 28.8976C34.1516 30.2095 33.2056 31.2778 31.9947 31.2778Z" fill="#2E6CFF"/>
</svg>
