<svg width="24" height="24" viewBox="0 0 24 24" fill="none" xmlns="http://www.w3.org/2000/svg">
<path d="M12 24C5.43529 24 -1.62195e-06 18.5529 -1.04907e-06 12C-4.75169e-07 5.43529 5.44706 -1.62195e-06 12.0118 -1.04804e-06C18.5647 -4.75169e-07 24 5.43529 24 12C24 18.5529 18.5529 24 12 24ZM12.0118 14.1882C12.6235 14.1882 12.9647 13.8471 12.9765 13.2235L13.1294 6.81176C13.1412 6.18823 12.6824 5.74118 12.0235 5.74118C11.3765 5.74118 10.8941 6.2 10.9059 6.82353L11.0706 13.2235C11.0824 13.8588 11.4235 14.1882 12.0118 14.1882ZM12.0118 18.1294C12.7176 18.1294 13.3294 17.5647 13.3294 16.8706C13.3294 16.1765 12.7294 15.6 12.0118 15.6C11.2941 15.6 10.6941 16.1647 10.6941 16.8706C10.6941 17.5765 11.3059 18.1294 12.0118 18.1294Z" fill="#FF0000"/>
</svg>
