<svg width="56" height="56" viewBox="0 0 56 56" fill="none" xmlns="http://www.w3.org/2000/svg">
<rect width="56" height="56" rx="28" fill="white"/>
<path d="M39.5 21.1327C38.674 21.494 37.7869 21.7349 36.8487 21.8453C37.8073 21.2832 38.5364 20.395 38.8831 19.3312C37.9755 19.8631 36.9813 20.2345 35.9463 20.4352C35.105 19.552 33.9069 19 32.5812 19C30.032 19 27.9619 21.0323 27.9619 23.5464C27.9619 23.8977 28.0027 24.249 28.0843 24.5802C24.2451 24.3895 20.8443 22.5829 18.5653 19.833C18.1676 20.5054 17.9432 21.2832 17.9432 22.1163C17.9432 23.6919 18.759 25.087 19.998 25.8999C19.2638 25.8748 18.5449 25.6841 17.9024 25.3329V25.3881C17.9024 27.591 19.4932 29.4277 21.6091 29.8442C21.2165 29.9495 20.8137 30.0047 20.3906 30.0047C20.0948 30.0047 19.8042 29.9746 19.5238 29.9244C20.1101 31.726 21.8131 33.0407 23.8372 33.0758C22.2515 34.2952 20.2631 35.0229 18.1013 35.0229C17.7291 35.0229 17.362 35.0028 17 34.9576C19.0445 36.2473 21.4714 37 24.0768 37C32.5659 37 37.2107 30.075 37.2107 24.0733C37.2107 23.8776 37.2056 23.6819 37.1954 23.4862C38.103 22.8439 38.8831 22.046 39.5 21.1327Z" fill="black"/>
</svg>
